<?xml version="1.0" encoding="UTF-8" standalone="no"?>
<!-- Created with Inkscape (http://www.inkscape.org/) -->

<svg
   xmlns:dc="http://purl.org/dc/elements/1.1/"
   xmlns:cc="http://creativecommons.org/ns#"
   xmlns:rdf="http://www.w3.org/1999/02/22-rdf-syntax-ns#"
   xmlns:svg="http://www.w3.org/2000/svg"
   xmlns="http://www.w3.org/2000/svg"
   xmlns:sodipodi="http://sodipodi.sourceforge.net/DTD/sodipodi-0.dtd"
   xmlns:inkscape="http://www.inkscape.org/namespaces/inkscape"
   width="64"
   height="64"
   id="svg4168"
   version="1.1"
   inkscape:version="0.91 r13725"
   viewBox="0 0 64 64"
   sodipodi:docname="folder-templates.svg">
  <defs
     id="defs4170">
    <filter
       inkscape:collect="always"
       style="color-interpolation-filters:sRGB"
       id="filter4171"
       x="-0.019924528"
       width="1.0398491"
       y="-0.030171429"
       height="1.0603429">
      <feGaussianBlur
         inkscape:collect="always"
         stdDeviation="0.44"
         id="feGaussianBlur4173" />
    </filter>
  </defs>
  <sodipodi:namedview
     id="base"
     pagecolor="#ffffff"
     bordercolor="#666666"
     borderopacity="1.0"
     inkscape:pageopacity="0.0"
     inkscape:pageshadow="2"
     inkscape:zoom="8.265625"
     inkscape:cx="12.968163"
     inkscape:cy="17.359437"
     inkscape:current-layer="layer1"
     showgrid="false"
     inkscape:document-units="px"
     inkscape:grid-bbox="true"
     inkscape:window-width="1366"
     inkscape:window-height="704"
     inkscape:window-x="0"
     inkscape:window-y="28"
     inkscape:window-maximized="1">
    <inkscape:grid
       type="xygrid"
       id="grid4716" />
  </sodipodi:namedview>
  <metadata
     id="metadata4173">
    <rdf:RDF>
      <cc:Work
         rdf:about="">
        <dc:format>image/svg+xml</dc:format>
        <dc:type
           rdf:resource="http://purl.org/dc/dcmitype/StillImage" />
        <dc:title />
      </cc:Work>
    </rdf:RDF>
  </metadata>
  <g
     id="layer1"
     inkscape:label="Layer 1"
     inkscape:groupmode="layer">
    <path
       style="fill:#8f3414;fill-rule:evenodd;stroke:#8f3414;stroke-width:2;stroke-linecap:butt;stroke-linejoin:round;stroke-opacity:1;stroke-miterlimit:4;stroke-dasharray:none;fill-opacity:1"
       d="m 7,57 0,-41 21,0 7,5 23,0 0,36 z"
       id="path4150"
       inkscape:connector-curvature="0" />
    <path
       style="fill:#732a10;fill-opacity:1;fill-rule:evenodd;stroke:none;stroke-width:2;stroke-linecap:butt;stroke-linejoin:round;stroke-miterlimit:4;stroke-dasharray:none;stroke-opacity:1;filter:url(#filter4171)"
       d="m 6.4636364,57.743998 51.0727276,0 0.963636,-35 -24.090909,0 -9.636364,5 -19.272727,0 z"
       id="path4148-3"
       inkscape:connector-curvature="0"
       transform="matrix(0.96091488,0,0,1.0011568,1.2296943,-0.04655443)" />
    <path
       style="fill:#d34d1e;fill-opacity:1;fill-rule:evenodd;stroke:#d34d1e;stroke-width:2;stroke-linecap:butt;stroke-linejoin:round;stroke-miterlimit:4;stroke-dasharray:none;stroke-opacity:1"
       d="M 6,59 59,59 60,24 35,24 25,29 5,29 Z"
       id="path4148"
       inkscape:connector-curvature="0" />
    <path
       style="fill:#732a10;fill-opacity:1;fill-rule:evenodd;stroke:none;stroke-width:1px;stroke-linecap:butt;stroke-linejoin:miter;stroke-opacity:1"
       d="m 49.95611,29.274744 0,3.418916 a 2.2500152,2.25098 0 0 0 -1.393089,2.079479 2.2500152,2.25098 0 0 0 0.193467,0.906129 l -3.090099,16.773787 0.275136,0.399153 -0.03615,2.085506 L 46.242771,55 46.95237,53.039062 47.352021,52.763807 50.264719,36.953075 a 2.2500152,2.25098 0 0 0 0.548265,0.07099 2.2500152,2.25098 0 0 0 0.548935,-0.06965 l 2.912698,15.809391 0.399651,0.275255 0.709599,1.960938 0.337393,-0.06229 -0.03615,-2.085506 0.275136,-0.399152 -3.090099,-16.771777 a 2.2500152,2.25098 0 0 0 0.193463,-0.908139 2.2500152,2.25098 0 0 0 -1.393757,-2.080819 l 0,-3.417576 -1.713746,0 z"
       id="path4575"
       inkscape:connector-curvature="0" />
    <path
       style="fill:#732a10;fill-opacity:1;fill-rule:evenodd;stroke:none;stroke-width:1px;stroke-linecap:butt;stroke-linejoin:miter;stroke-opacity:1"
       d="m 36,29.27423 0,1.259014 3.336311,0 0,1.102532 -3.336311,0 0,1.6538 3.336311,0 0,1.102534 -3.336311,0 0,1.653798 3.336311,0 0,1.102533 -3.336311,0 0,1.6538 3.336311,0 0,1.102532 -3.336311,0 0,1.653799 3.336311,0 0,1.102534 -3.336311,0 0,1.6538 3.336311,0 0,1.102532 -3.336311,0 0,1.653799 3.336311,0 0,1.102534 -3.336311,0 0,1.653799 3.336311,0 0,1.102533 -3.336311,0 0,1.6538 3.336311,0 0,1.102533 -3.336311,0 L 36,55 l 7.35022,0 0,-25.72577 -7.35022,0 z"
       id="path4614"
       inkscape:connector-curvature="0" />
  </g>
</svg>
