<?xml version="1.0" encoding="UTF-8" standalone="no"?>
<!-- Created with Inkscape (http://www.inkscape.org/) -->

<svg
   xmlns:dc="http://purl.org/dc/elements/1.1/"
   xmlns:cc="http://creativecommons.org/ns#"
   xmlns:rdf="http://www.w3.org/1999/02/22-rdf-syntax-ns#"
   xmlns:svg="http://www.w3.org/2000/svg"
   xmlns="http://www.w3.org/2000/svg"
   xmlns:xlink="http://www.w3.org/1999/xlink"
   xmlns:sodipodi="http://sodipodi.sourceforge.net/DTD/sodipodi-0.dtd"
   xmlns:inkscape="http://www.inkscape.org/namespaces/inkscape"
   id="svg2"
   version="1.1"
   inkscape:version="0.91 r13725"
   width="512"
   height="512"
   sodipodi:docname="input-mouse.svg"
   viewBox="0 0 512 512">
  <metadata
     id="metadata8">
    <rdf:RDF>
      <cc:Work
         rdf:about="">
        <dc:format>image/svg+xml</dc:format>
        <dc:type
           rdf:resource="http://purl.org/dc/dcmitype/StillImage" />
        <dc:title />
      </cc:Work>
    </rdf:RDF>
  </metadata>
  <defs
     id="defs6">
    <linearGradient
       inkscape:collect="always"
       id="linearGradient4351">
      <stop
         style="stop-color:#f5f5f5;stop-opacity:1"
         offset="0"
         id="stop4353" />
      <stop
         style="stop-color:#f4f4f4;stop-opacity:0;"
         offset="1"
         id="stop4355" />
    </linearGradient>
    <linearGradient
       inkscape:collect="always"
       id="linearGradient4325">
      <stop
         style="stop-color:#939393;stop-opacity:1"
         offset="0"
         id="stop4327" />
      <stop
         style="stop-color:#f4f4f4;stop-opacity:0"
         offset="1"
         id="stop4329" />
    </linearGradient>
    <linearGradient
       id="linearGradient4212"
       inkscape:collect="always">
      <stop
         id="stop4295"
         offset="0"
         style="stop-color:#636363;stop-opacity:1;" />
      <stop
         id="stop4297"
         offset="1"
         style="stop-color:#000000;stop-opacity:0" />
    </linearGradient>
    <linearGradient
       id="linearGradient3764-2"
       y1="47"
       x2="0"
       y2="1"
       gradientUnits="userSpaceOnUse">
      <stop
         stop-color="#3fc58b"
         stop-opacity="1"
         id="stop4289" />
      <stop
         offset="1"
         stop-color="#4eca95"
         stop-opacity="1"
         id="stop4291" />
    </linearGradient>
    <clipPath
       id="clipPath-717834183">
      <g
         id="g17"
         transform="translate(0,-1004.3622)">
        <path
           id="path19"
           transform="matrix(15.333333,0,0,11.5,414.99999,878.8622)"
           d="m -24,13 c 0,1.105 -0.672,2 -1.5,2 -0.828,0 -1.5,-0.895 -1.5,-2 0,-1.105 0.672,-2 1.5,-2 0.828,0 1.5,0.895 1.5,2 z"
           inkscape:connector-curvature="0"
           style="fill:#1890d0" />
      </g>
    </clipPath>
    <clipPath
       id="clipPath-699552035">
      <g
         id="g12"
         transform="translate(0,-1004.3622)">
        <path
           id="path14"
           transform="matrix(15.333333,0,0,11.5,414.99999,878.8622)"
           d="m -24,13 c 0,1.105 -0.672,2 -1.5,2 -0.828,0 -1.5,-0.895 -1.5,-2 0,-1.105 0.672,-2 1.5,-2 0.828,0 1.5,0.895 1.5,2 z"
           inkscape:connector-curvature="0"
           style="fill:#1890d0" />
      </g>
    </clipPath>
    <linearGradient
       gradientUnits="userSpaceOnUse"
       y2="1"
       x2="0"
       y1="47"
       id="linearGradient3764">
      <stop
         id="stop7"
         stop-opacity="1"
         stop-color="#3fc58b" />
      <stop
         id="stop9"
         stop-opacity="1"
         stop-color="#4eca95"
         offset="1" />
    </linearGradient>
    <clipPath
       clipPathUnits="userSpaceOnUse"
       id="clipPath4153">
      <path
         style="opacity:1;fill:none;fill-opacity:1;stroke:#000000;stroke-width:11.60000038;stroke-miterlimit:4;stroke-dasharray:none;stroke-dashoffset:0;stroke-opacity:1"
         id="path4155"
         sodipodi:type="arc"
         sodipodi:cx="256.54236"
         sodipodi:cy="255.45761"
         sodipodi:rx="240.27118"
         sodipodi:ry="240.27118"
         sodipodi:start="0"
         sodipodi:end="6.2831338"
         sodipodi:open="true"
         d="M 496.81354,255.45761 A 240.27118,240.27118 0 0 1 256.54545,495.72879 240.27118,240.27118 0 0 1 16.271179,255.4638 240.27118,240.27118 0 0 1 256.53308,15.186432 240.27118,240.27118 0 0 1 496.81354,255.44524" />
    </clipPath>
    <clipPath
       clipPathUnits="userSpaceOnUse"
       id="clipPath4164">
      <circle
         style="opacity:1;fill:none;fill-opacity:1;stroke:#000000;stroke-width:0.98726904;stroke-miterlimit:4;stroke-dasharray:none;stroke-dashoffset:0;stroke-opacity:1"
         id="circle4166"
         cx="255.17685"
         cy="255.43602"
         r="240.42513" />
    </clipPath>
    <clipPath
       clipPathUnits="userSpaceOnUse"
       id="clipPath3357">
      <circle
         style="opacity:1;fill:#808080;fill-opacity:1;stroke:none;stroke-width:0.89999998;stroke-miterlimit:4;stroke-dasharray:none;stroke-dashoffset:0;stroke-opacity:1"
         id="circle3359"
         cx="255.45761"
         cy="254.37288"
         r="233.76271" />
    </clipPath>
    <linearGradient
       inkscape:collect="always"
       xlink:href="#linearGradient4212"
       id="linearGradient4218"
       x1="-114.72656"
       y1="55.5896"
       x2="-115.07468"
       y2="87.39109"
       gradientUnits="userSpaceOnUse"
       gradientTransform="matrix(0.9153964,0,0,1.144245,361.27058,-10.160312)" />
    <linearGradient
       gradientTransform="matrix(0.9153964,0,0,-1.144245,361.27058,235.2807)"
       inkscape:collect="always"
       xlink:href="#linearGradient4212"
       id="linearGradient4218-7"
       x1="-114.72656"
       y1="55.5896"
       x2="-115.07468"
       y2="87.39109"
       gradientUnits="userSpaceOnUse" />
    <linearGradient
       inkscape:collect="always"
       xlink:href="#linearGradient4325"
       id="linearGradient4331"
       x1="-49.944492"
       y1="159.42809"
       x2="-48.478958"
       y2="127.97661"
       gradientUnits="userSpaceOnUse"
       gradientTransform="matrix(4.5769802,0,0,4.5769802,489.59135,-249.51583)" />
    <linearGradient
       inkscape:collect="always"
       xlink:href="#linearGradient4351"
       id="linearGradient4357"
       x1="-50.159798"
       y1="55.213058"
       x2="-50.322395"
       y2="79.660454"
       gradientUnits="userSpaceOnUse"
       gradientTransform="matrix(4.5769802,0,0,4.5769802,489.59136,-249.51583)" />
  </defs>
  <sodipodi:namedview
     pagecolor="#ffffff"
     bordercolor="#666666"
     borderopacity="1"
     objecttolerance="10"
     gridtolerance="10"
     guidetolerance="10"
     inkscape:pageopacity="0"
     inkscape:pageshadow="2"
     inkscape:window-width="1366"
     inkscape:window-height="704"
     id="namedview4"
     showgrid="false"
     inkscape:zoom="1.7788019"
     inkscape:cx="94.666444"
     inkscape:cy="358.56898"
     inkscape:window-x="0"
     inkscape:window-y="28"
     inkscape:window-maximized="1"
     inkscape:current-layer="svg2"
     inkscape:document-units="px">
    <inkscape:grid
       type="xygrid"
       id="grid4156" />
  </sodipodi:namedview>
  <path
     style="fill:#ededed;fill-opacity:1;fill-rule:evenodd;stroke:none;stroke-width:1.04473388px;stroke-linecap:butt;stroke-linejoin:miter;stroke-opacity:1"
     d="m 242.65397,31.236158 c -35.72332,-0.14093 -93.27672,0.80682 -100.5777,25.05442 -32.17828,119.331152 -37.4323,224.160572 -22.86872,349.941662 8.13548,56.57683 90.47003,74.75733 136.37261,74.96792 l 0,0.0183 c 0.13355,0 0.28569,-0.009 0.41984,-0.009 0.1342,2.7e-4 0.28634,0.009 0.41985,0.009 l 0,-0.0183 c 45.90257,-0.21055 128.23712,-18.39109 136.3726,-74.96792 14.56358,-125.78109 9.30956,-230.61051 -22.86872,-349.941662 -8.28036,-27.50025 -81.1029,-25.03502 -113.50388,-24.99584 -0.24409,0 -0.59077,3e-4 -0.83971,0 -3.83229,-0.005 -8.13415,-0.0394 -12.92619,-0.0586 z"
     id="path4168"
     inkscape:connector-curvature="0" />
  <path
     style="fill:none;fill-rule:evenodd;stroke:#4c4c4c;stroke-width:4.577;stroke-linecap:round;stroke-linejoin:miter;stroke-opacity:1;stroke-miterlimit:4;stroke-dasharray:none"
     d="m 256,34.256938 0,183.079212"
     id="path4186"
     inkscape:connector-curvature="0" />
  <path
     style="opacity:0.98999999;fill:url(#linearGradient4331);fill-opacity:1;fill-rule:evenodd;stroke:none;stroke-width:1;stroke-linecap:round;stroke-linejoin:round;stroke-miterlimit:4;stroke-dasharray:none;stroke-opacity:1"
     d="m 111.80276,302.66287 c 0.75724,33.3719 3.23709,67.60245 7.40184,103.57202 8.13548,56.57684 90.46819,74.75537 136.37077,74.96595 l 0,0.0183 c 0.13355,0 0.28601,-0.009 0.42016,-0.009 0.1342,2.7e-4 0.28666,0.009 0.42017,0.009 l 0,-0.0183 c 45.90257,-0.21054 128.24422,-18.38911 136.3797,-74.96595 4.16474,-35.96957 6.64461,-70.20012 7.40184,-103.57202 l -288.39445,0 z"
     id="rect4307"
     inkscape:connector-curvature="0" />
  <path
     style="fill:url(#linearGradient4357);fill-opacity:1;fill-rule:evenodd;stroke:none;stroke-width:1.04473388px;stroke-linecap:butt;stroke-linejoin:miter;stroke-opacity:1"
     d="m 270.26284,31.226478 c -5.10829,0.0174 -9.79703,0.0666 -13.84715,0.0715 -0.24409,0 -0.59136,3e-4 -0.84031,0 -3.83229,-0.005 -8.12542,-0.0435 -12.91746,-0.0626 -35.72332,-0.14092 -93.28531,0.80958 -100.58628,25.05718 -6.75347,25.04481 -12.2516,49.431682 -16.69883,73.526682 l 261.25438,0 c -4.44724,-24.095 -9.9543,-48.481872 -16.70776,-73.526682 -7.24531,-24.06275 -63.89857,-25.18828 -99.65659,-25.06615 z"
     id="path4168-1"
     inkscape:connector-curvature="0" />
  <path
     style="fill:#636363;fill-opacity:1;fill-rule:evenodd;stroke:none;stroke-width:1px;stroke-linecap:butt;stroke-linejoin:miter;stroke-opacity:1"
     d="m 242.19494,66.504098 27.99604,-0.16111 c 1.37075,0.16111 4.11694,13.89169 4.11694,23.20062 l 0,45.671952 c 0,7.95259 -1.83079,22.82778 -3.8596,22.98862 l -28.12472,0 c -1.88535,-0.16047 -4.63152,-15.03566 -4.63152,-22.50584 l 0,-45.832782 c 0,-8.48627 2.74617,-23.36146 4.50286,-23.36146 z"
     id="path4192"
     inkscape:connector-curvature="0"
     sodipodi:nodetypes="ccccccccc" />
  <path
     style="fill:url(#linearGradient4218);fill-opacity:1;fill-rule:evenodd;stroke:none;stroke-width:1px;stroke-linecap:butt;stroke-linejoin:miter;stroke-opacity:1"
     d="m 270.1904,66.343268 -27.99466,0.16111 c -1.75668,0 -4.50366,14.87473 -4.50366,23.361 l 0,0.72224 36.61584,0 0,-1.04364 c 0,-9.30884 -2.74677,-23.03924 -4.11752,-23.19998 z"
     id="path4192-6"
     inkscape:connector-curvature="0" />
  <path
     inkscape:connector-curvature="0"
     style="fill:url(#linearGradient4218-7);fill-opacity:1;fill-rule:evenodd;stroke:none;stroke-width:1px;stroke-linecap:butt;stroke-linejoin:miter;stroke-opacity:1"
     d="m 270.1904,158.77721 -27.99466,-0.16111 c -1.75668,0 -4.50366,-14.87463 -4.50366,-23.3609 l 0,-0.72225 36.61584,0 0,1.04373 c 0,9.30885 -2.74677,23.03915 -4.11752,23.19998 z"
     id="path4192-6-5" />
</svg>
