<?xml version="1.0" encoding="UTF-8" standalone="no"?>
<!-- Created with Inkscape (http://www.inkscape.org/) -->

<svg
   xmlns:dc="http://purl.org/dc/elements/1.1/"
   xmlns:cc="http://creativecommons.org/ns#"
   xmlns:rdf="http://www.w3.org/1999/02/22-rdf-syntax-ns#"
   xmlns:svg="http://www.w3.org/2000/svg"
   xmlns="http://www.w3.org/2000/svg"
   xmlns:sodipodi="http://sodipodi.sourceforge.net/DTD/sodipodi-0.dtd"
   xmlns:inkscape="http://www.inkscape.org/namespaces/inkscape"
   id="svg3037"
   version="1.1"
   inkscape:version="0.91 r13725"
   width="512"
   height="512"
   sodipodi:docname="libreoffice-base.svg"
   viewBox="0 0 512 512">
  <metadata
     id="metadata3043">
    <rdf:RDF>
      <cc:Work
         rdf:about="">
        <dc:format>image/svg+xml</dc:format>
        <dc:type
           rdf:resource="http://purl.org/dc/dcmitype/StillImage" />
        <dc:title></dc:title>
      </cc:Work>
    </rdf:RDF>
  </metadata>
  <defs
     id="defs3041">
    <filter
       inkscape:collect="always"
       style="color-interpolation-filters:sRGB"
       id="filter4262"
       x="-0.013502406"
       width="1.0270048"
       y="-0.010798461"
       height="1.0215969">
      <feGaussianBlur
         inkscape:collect="always"
         stdDeviation="1.6850977"
         id="feGaussianBlur4264" />
    </filter>
  </defs>
  <sodipodi:namedview
     pagecolor="#ffffff"
     bordercolor="#666666"
     borderopacity="1"
     objecttolerance="10"
     gridtolerance="10"
     guidetolerance="10"
     inkscape:pageopacity="0"
     inkscape:pageshadow="2"
     inkscape:window-width="1920"
     inkscape:window-height="1016"
     id="namedview3039"
     showgrid="false"
     inkscape:zoom="1.1020922"
     inkscape:cx="218.55482"
     inkscape:cy="258.58988"
     inkscape:window-x="0"
     inkscape:window-y="28"
     inkscape:window-maximized="1"
     inkscape:current-layer="svg3037"
     inkscape:document-units="px">
    <inkscape:grid
       type="xygrid"
       id="grid4188" />
  </sodipodi:namedview>
  <rect
     style="opacity:1;fill:#550c5a;fill-opacity:1;fill-rule:evenodd;stroke:#ffffff;stroke-width:0.58045352;stroke-linecap:round;stroke-linejoin:round;stroke-miterlimit:4;stroke-dasharray:none;stroke-opacity:1"
     id="rect4136-9"
     width="359.41953"
     height="457.41956"
     x="76.290222"
     y="29.290236"
     ry="14.461738" />
  <rect
     style="opacity:1;fill:#83128a;fill-opacity:1;fill-rule:evenodd;stroke:none;stroke-width:0.57536256;stroke-linecap:round;stroke-linejoin:round;stroke-miterlimit:4;stroke-dasharray:none;stroke-opacity:1"
     id="rect4136"
     width="359.42465"
     height="449.42465"
     x="76.287674"
     y="31.287674"
     ry="14.208972" />
  <path
     inkscape:connector-curvature="0"
     style="opacity:1;fill:#550c5a;fill-opacity:1;fill-rule:evenodd;stroke:none;stroke-width:0.47946879;stroke-linecap:round;stroke-linejoin:round;stroke-miterlimit:4;stroke-dasharray:none;stroke-opacity:1;filter:url(#filter4262)"
     d="m 118.08008,74.740234 c -6.55981,0 -11.83985,5.280036 -11.83985,11.839844 l 0,350.839842 c 0,6.55981 5.28004,11.83985 11.83985,11.83985 l 275.83984,0 c 6.55981,0 11.83985,-5.28004 11.83985,-11.83985 l 0,-215.58398 -140.9668,-147.095706 -146.71289,0 z"
     id="rect4136-6-2" />
  <path
     style="opacity:1;fill:#ffffff;fill-opacity:1;fill-rule:evenodd;stroke:#ffffff;stroke-width:0.47946879;stroke-linecap:round;stroke-linejoin:round;stroke-miterlimit:4;stroke-dasharray:none;stroke-opacity:1"
     d="M 118.08008 68.740234 C 111.52027 68.740234 106.24023 74.02027 106.24023 80.580078 L 106.24023 431.41992 C 106.24023 437.97973 111.52027 443.25977 118.08008 443.25977 L 393.91992 443.25977 C 400.47973 443.25977 405.75977 437.97973 405.75977 431.41992 L 405.75977 215.83594 L 264.79297 68.740234 L 118.08008 68.740234 z "
     id="rect4136-6" />
  <path
     style="opacity:1;fill:#dcdcdc;fill-opacity:1;fill-rule:evenodd;stroke:none;stroke-width:0.5;stroke-linecap:round;stroke-linejoin:round;stroke-miterlimit:4;stroke-dasharray:none;stroke-opacity:1"
     d="m 256.00106,268.25624 a 102.49984,41.960043 0 0 0 -102.27528,40.11038 l -0.22576,0 0,1.8482 0,24.024 0,2.65107 0.23002,0 A 102.49984,41.960043 0 0 0 256.00106,376.2 102.49984,41.960043 0 0 0 358.17625,336.88989 l 0.32373,0 0,-2.65107 0,-24.024 0,-1.8482 -0.15974,0 A 102.49984,41.960043 0 0 0 256.00106,268.25624 Z"
     id="path4278"
     inkscape:connector-curvature="0" />
  <ellipse
     style="opacity:1;fill:#ffffff;fill-opacity:1;fill-rule:evenodd;stroke:none;stroke-width:0.5;stroke-linecap:round;stroke-linejoin:round;stroke-miterlimit:4;stroke-dasharray:none;stroke-opacity:1"
     id="path4278-5-9"
     cx="256"
     cy="310.21603"
     rx="102.49984"
     ry="41.960041" />
  <path
     inkscape:connector-curvature="0"
     style="opacity:1;fill:#dcdcdc;fill-opacity:1;fill-rule:evenodd;stroke:none;stroke-width:0.5;stroke-linecap:round;stroke-linejoin:round;stroke-miterlimit:4;stroke-dasharray:none;stroke-opacity:1"
     d="m 256.00106,241.56291 a 102.49984,41.960043 0 0 0 -102.27528,40.11037 l -0.22576,0 0,1.84821 0,24.024 0,2.65107 0.23002,0 a 102.49984,41.960043 0 0 0 102.27102,39.31011 102.49984,41.960043 0 0 0 102.17519,-39.31011 l 0.32373,0 0,-2.65107 0,-24.024 0,-1.84821 -0.15973,0 A 102.49984,41.960043 0 0 0 256.00106,241.56291 Z"
     id="path4278-1" />
  <ellipse
     style="opacity:1;fill:#ffffff;fill-opacity:1;fill-rule:evenodd;stroke:none;stroke-width:0.5;stroke-linecap:round;stroke-linejoin:round;stroke-miterlimit:4;stroke-dasharray:none;stroke-opacity:1"
     id="path4278-5-9-2"
     cx="256"
     cy="283.52271"
     rx="102.49984"
     ry="41.960041" />
  <path
     style="opacity:1;fill:#dcdcdc;fill-opacity:1;fill-rule:evenodd;stroke:none;stroke-width:0.5;stroke-linecap:round;stroke-linejoin:round;stroke-miterlimit:4;stroke-dasharray:none;stroke-opacity:1"
     d="m 256.00106,214.86958 a 102.49984,41.960043 0 0 1 6.20851,0.12773 102.49984,41.960043 0 0 0 -6.20851,-0.12773 z m -8.88998,0.18508 a 102.49984,41.960043 0 0 0 -4.36193,0.21636 102.49984,41.960043 0 0 1 4.36193,-0.21636 z m 20.56581,0.11211 a 102.49984,41.960043 0 0 1 4.55574,0.28414 102.49984,41.960043 0 0 0 -4.55574,-0.28414 z m -30.92539,0.47965 a 102.49984,41.960043 0 0 0 -3.55897,0.32845 102.49984,41.960043 0 0 1 3.55897,-0.32845 z m 41.0805,0.21375 a 102.49984,41.960043 0 0 1 4.24479,0.44315 102.49984,41.960043 0 0 0 -4.24479,-0.44315 z m -51.2207,0.8055 a 102.49984,41.960043 0 0 0 -2.93493,0.39884 102.49984,41.960043 0 0 1 2.93493,-0.39884 z m 61.14366,0.29716 a 102.49984,41.960043 0 0 1 3.97217,0.59436 102.49984,41.960043 0 0 0 -3.97217,-0.59436 z m -70.87067,1.12092 a 102.49984,41.960043 0 0 0 -2.49832,0.45619 102.49984,41.960043 0 0 1 2.49832,-0.45619 z m 80.50397,0.3884 a 102.49984,41.960043 0 0 1 3.43119,0.67777 102.49984,41.960043 0 0 0 -3.43119,-0.67777 z m -89.93707,1.44415 a 102.49984,41.960043 0 0 0 -1.82102,0.42752 102.49984,41.960043 0 0 1 1.82102,-0.42752 z m 99.23599,0.47705 a 102.49984,41.960043 0 0 1 2.79436,0.70122 102.49984,41.960043 0 0 0 -2.79436,-0.70122 z m -108.12811,1.73089 a 102.49984,41.960043 0 0 0 -1.29282,0.3806 102.49984,41.960043 0 0 1 1.29282,-0.3806 z m 116.79233,0.53179 a 102.49984,41.960043 0 0 1 2.52387,0.78463 102.49984,41.960043 0 0 0 -2.52387,-0.78463 z m -125.06252,2.02284 a 102.49984,41.960043 0 0 0 -0.90306,0.32585 102.49984,41.960043 0 0 1 0.90306,-0.32585 z m 133.11547,0.58132 a 102.49984,41.960043 0 0 1 2.2406,0.85241 102.49984,41.960043 0 0 0 -2.2406,-0.85241 z m -140.71264,2.30178 a 102.49984,41.960043 0 0 0 -0.55589,0.24503 102.49984,41.960043 0 0 1 0.55589,-0.24503 z m 148.11599,0.63084 a 102.49984,41.960043 0 0 1 1.87214,0.87066 102.49984,41.960043 0 0 0 -1.87214,-0.87066 z m -154.95919,2.55203 a 102.49984,41.960043 0 0 0 -0.27688,0.14857 102.49984,41.960043 0 0 1 0.27688,-0.14857 z m 161.60432,0.66733 a 102.49984,41.960043 0 0 1 1.51858,0.86806 102.49984,41.960043 0 0 0 -1.51858,-0.86806 z m 5.82939,3.48004 a 102.49984,41.960043 0 0 1 1.19272,0.85241 102.49984,41.960043 0 0 0 -1.19272,-0.85241 z m 4.91782,3.68336 a 102.49984,41.960043 0 0 1 0.96695,0.88369 102.49984,41.960043 0 0 0 -0.96695,-0.88369 z m 3.99346,3.86323 a 102.49984,41.960043 0 0 1 0.73267,0.90195 102.49984,41.960043 0 0 0 -0.73267,-0.90195 z m 3.0393,4.02226 a 102.49984,41.960043 0 0 1 0.47282,0.86283 102.49984,41.960043 0 0 0 -0.47282,-0.86283 z m 2.03826,4.11869 a 102.49984,41.960043 0 0 1 0.25132,0.8498 102.49984,41.960043 0 0 0 -0.25132,-0.8498 z m -203.77104,4.40023 0,1.84821 a 102.49984,41.960043 0 0 1 0.22576,-1.84821 l -0.22576,0 z m 0,1.84821 0,24.02399 0,2.65108 0.23002,0 a 102.49984,41.960043 0 0 0 102.27102,39.31008 102.49984,41.960043 0 0 0 102.17519,-39.31011 l 0.32373,0 0,-2.65107 0,-24.024 A 102.49984,41.960043 0 0 1 256.00106,298.78934 102.49984,41.960043 0 0 1 153.50002,256.82816 Z m 204.99996,0 0,-1.84821 -0.15974,0 a 102.49984,41.960043 0 0 1 0.15974,1.84821 z"
     id="path4278-7"
     inkscape:connector-curvature="0" />
  <ellipse
     style="opacity:1;fill:#dcdcdc;fill-opacity:1;fill-rule:evenodd;stroke:none;stroke-width:5;stroke-linecap:round;stroke-linejoin:round;stroke-miterlimit:4;stroke-dasharray:none;stroke-opacity:1"
     id="path4278-5-9-0-3"
     cx="256"
     cy="254.16003"
     rx="102.49984"
     ry="41.960041" />
</svg>
