<?xml version="1.0" encoding="UTF-8" standalone="no"?>
<!-- Created with Inkscape (http://www.inkscape.org/) -->

<svg
   xmlns:dc="http://purl.org/dc/elements/1.1/"
   xmlns:cc="http://creativecommons.org/ns#"
   xmlns:rdf="http://www.w3.org/1999/02/22-rdf-syntax-ns#"
   xmlns:svg="http://www.w3.org/2000/svg"
   xmlns="http://www.w3.org/2000/svg"
   xmlns:sodipodi="http://sodipodi.sourceforge.net/DTD/sodipodi-0.dtd"
   xmlns:inkscape="http://www.inkscape.org/namespaces/inkscape"
   id="svg3037"
   version="1.1"
   inkscape:version="0.91 r13725"
   width="512"
   height="512"
   sodipodi:docname="libreoffice-template.svg"
   viewBox="0 0 512 512">
  <metadata
     id="metadata3043">
    <rdf:RDF>
      <cc:Work
         rdf:about="">
        <dc:format>image/svg+xml</dc:format>
        <dc:type
           rdf:resource="http://purl.org/dc/dcmitype/StillImage" />
        <dc:title></dc:title>
      </cc:Work>
    </rdf:RDF>
  </metadata>
  <defs
     id="defs3041">
    <filter
       inkscape:collect="always"
       style="color-interpolation-filters:sRGB"
       id="filter4262"
       x="-0.013502406"
       width="1.0270048"
       y="-0.010798461"
       height="1.0215969">
      <feGaussianBlur
         inkscape:collect="always"
         stdDeviation="1.6850977"
         id="feGaussianBlur4264" />
    </filter>
  </defs>
  <sodipodi:namedview
     pagecolor="#ffffff"
     bordercolor="#666666"
     borderopacity="1"
     objecttolerance="10"
     gridtolerance="10"
     guidetolerance="10"
     inkscape:pageopacity="0"
     inkscape:pageshadow="2"
     inkscape:window-width="1920"
     inkscape:window-height="1016"
     id="namedview3039"
     showgrid="false"
     inkscape:zoom="1"
     inkscape:cx="-30.08554"
     inkscape:cy="203.18887"
     inkscape:window-x="0"
     inkscape:window-y="28"
     inkscape:window-maximized="1"
     inkscape:current-layer="svg3037"
     inkscape:document-units="px">
    <inkscape:grid
       type="xygrid"
       id="grid4188" />
  </sodipodi:namedview>
  <rect
     style="opacity:1;fill:#3c3c3c;fill-opacity:1;fill-rule:evenodd;stroke:#ffffff;stroke-width:0.58045352;stroke-linecap:round;stroke-linejoin:round;stroke-miterlimit:4;stroke-dasharray:none;stroke-opacity:1"
     id="rect4136-9"
     width="359.41953"
     height="457.41956"
     x="76.290222"
     y="29.290236"
     ry="14.461738" />
  <rect
     style="opacity:1;fill:#5a5a5a;fill-opacity:1;fill-rule:evenodd;stroke:none;stroke-width:0.57536256;stroke-linecap:round;stroke-linejoin:round;stroke-miterlimit:4;stroke-dasharray:none;stroke-opacity:1"
     id="rect4136"
     width="359.42465"
     height="449.42465"
     x="76.287674"
     y="31.287674"
     ry="14.208972" />
  <path
     inkscape:connector-curvature="0"
     style="opacity:1;fill:#3c3c3c;fill-opacity:1;fill-rule:evenodd;stroke:none;stroke-width:0.47946879;stroke-linecap:round;stroke-linejoin:round;stroke-miterlimit:4;stroke-dasharray:none;stroke-opacity:1;filter:url(#filter4262)"
     d="m 118.08008,74.740234 c -6.55981,0 -11.83985,5.280036 -11.83985,11.839844 l 0,350.839842 c 0,6.55981 5.28004,11.83985 11.83985,11.83985 l 275.83984,0 c 6.55981,0 11.83985,-5.28004 11.83985,-11.83985 l 0,-215.58398 -140.9668,-147.095706 -146.71289,0 z"
     id="rect4136-6-2" />
  <path
     style="opacity:1;fill:#ffffff;fill-opacity:1;fill-rule:evenodd;stroke:#ffffff;stroke-width:0.47946879;stroke-linecap:round;stroke-linejoin:round;stroke-miterlimit:4;stroke-dasharray:none;stroke-opacity:1"
     d="M 118.08008 68.740234 C 111.52027 68.740234 106.24023 74.02027 106.24023 80.580078 L 106.24023 431.41992 C 106.24023 437.97973 111.52027 443.25977 118.08008 443.25977 L 393.91992 443.25977 C 400.47973 443.25977 405.75977 437.97973 405.75977 431.41992 L 405.75977 215.83594 L 264.79297 68.740234 L 118.08008 68.740234 z "
     id="rect4136-6" />
  <path
     d="m 235.90096,212 c -14.4298,0 -26.12707,6.47859 -26.12707,14.4705 0.42003,2.98139 2.77592,6.74641 4.01973,8.03903 6.0292,6.43146 6.0292,10.45067 4.52189,12.86231 l -48.73737,0 c -8.90741,0 -16.07814,5.7365 -16.07814,12.86232 l 0,32.56033 c 3.01461,1.20582 8.03946,1.20582 16.07814,-3.61747 1.6158,-0.99504 6.32215,-2.87972 10.04894,-3.21573 9.99003,0 18.0884,9.3552 18.0884,20.90134 0,11.54367 -8.09837,20.90135 -18.0884,20.90135 -3.06575,-0.0415 -7.72715,-2.23496 -10.04894,-3.21574 -8.03945,-4.82329 -13.06353,-4.82329 -16.07814,-3.61747 l 0,42.20691 C 153.5,370.26351 160.67073,376 169.57814,376 l 64.81784,0 c 1.5073,-2.41165 1.5073,-6.43147 -4.5219,-12.86232 -1.24382,-1.29262 -3.5997,-5.05764 -4.01973,-8.03903 0,-7.9919 11.69418,-14.47049 26.12707,-14.47049 14.4298,0 26.12708,6.47859 26.12708,14.47049 -0.0519,2.45257 -2.79374,6.18163 -4.01972,8.03903 -6.02921,6.43147 -6.02921,10.45067 -4.52191,12.86232 l 28.63951,0 c 8.90741,0 16.07814,-5.73649 16.07814,-12.86232 l 0,-35.77358 c 3.01461,-1.20582 8.03946,-1.20582 16.07814,3.61747 2.32179,0.98016 6.98242,3.1742 10.04894,3.21574 9.99004,0 18.0884,-9.35521 18.0884,-20.90135 0,-11.54366 -8.09836,-20.90135 -18.0884,-20.90135 -3.7268,0.33602 -8.43314,2.2207 -10.04894,3.21574 -8.03946,4.82329 -13.06353,4.82329 -16.07814,3.61747 l 0,-38.98931 c 0,-7.12583 -7.17073,-12.86232 -16.07814,-12.86232 l -44.71765,0 c -1.50731,-2.41165 -1.50731,-6.43148 4.52191,-12.86232 1.22521,-1.8574 3.9678,-5.58585 4.01972,-8.03903 0,-7.99191 -11.69418,-14.4705 -26.12708,-14.4705"
     inkscape:connector-curvature="0"
     id="path66"
     style="color:#000000;fill:#cacaca;fill-opacity:1" />
</svg>
