<?xml version="1.0" encoding="UTF-8" standalone="no"?>
<!-- Created with Inkscape (http://www.inkscape.org/) -->

<svg
   xmlns:dc="http://purl.org/dc/elements/1.1/"
   xmlns:cc="http://creativecommons.org/ns#"
   xmlns:rdf="http://www.w3.org/1999/02/22-rdf-syntax-ns#"
   xmlns:svg="http://www.w3.org/2000/svg"
   xmlns="http://www.w3.org/2000/svg"
   xmlns:sodipodi="http://sodipodi.sourceforge.net/DTD/sodipodi-0.dtd"
   xmlns:inkscape="http://www.inkscape.org/namespaces/inkscape"
   id="svg3037"
   version="1.1"
   inkscape:version="0.91 r13725"
   width="512"
   height="512"
   sodipodi:docname="libreoffice-printeradmin.svg"
   viewBox="0 0 512 512">
  <metadata
     id="metadata3043">
    <rdf:RDF>
      <cc:Work
         rdf:about="">
        <dc:format>image/svg+xml</dc:format>
        <dc:type
           rdf:resource="http://purl.org/dc/dcmitype/StillImage" />
        <dc:title></dc:title>
      </cc:Work>
    </rdf:RDF>
  </metadata>
  <defs
     id="defs3041">
    <filter
       inkscape:collect="always"
       style="color-interpolation-filters:sRGB"
       id="filter4262"
       x="-0.013502406"
       width="1.0270048"
       y="-0.010798461"
       height="1.0215969">
      <feGaussianBlur
         inkscape:collect="always"
         stdDeviation="1.6850977"
         id="feGaussianBlur4264" />
    </filter>
  </defs>
  <sodipodi:namedview
     pagecolor="#ffffff"
     bordercolor="#666666"
     borderopacity="1"
     objecttolerance="10"
     gridtolerance="10"
     guidetolerance="10"
     inkscape:pageopacity="0"
     inkscape:pageshadow="2"
     inkscape:window-width="1920"
     inkscape:window-height="1016"
     id="namedview3039"
     showgrid="false"
     inkscape:zoom="1"
     inkscape:cx="-30.08554"
     inkscape:cy="203.18887"
     inkscape:window-x="0"
     inkscape:window-y="28"
     inkscape:window-maximized="1"
     inkscape:current-layer="svg3037"
     inkscape:document-units="px">
    <inkscape:grid
       type="xygrid"
       id="grid4188" />
  </sodipodi:namedview>
  <rect
     style="opacity:1;fill:#3c3c3c;fill-opacity:1;fill-rule:evenodd;stroke:#ffffff;stroke-width:0.58045352;stroke-linecap:round;stroke-linejoin:round;stroke-miterlimit:4;stroke-dasharray:none;stroke-opacity:1"
     id="rect4136-9"
     width="359.41953"
     height="457.41956"
     x="76.290222"
     y="29.290236"
     ry="14.461738" />
  <rect
     style="opacity:1;fill:#5a5a5a;fill-opacity:1;fill-rule:evenodd;stroke:none;stroke-width:0.57536256;stroke-linecap:round;stroke-linejoin:round;stroke-miterlimit:4;stroke-dasharray:none;stroke-opacity:1"
     id="rect4136"
     width="359.42465"
     height="449.42465"
     x="76.287674"
     y="31.287674"
     ry="14.208972" />
  <path
     inkscape:connector-curvature="0"
     style="opacity:1;fill:#3c3c3c;fill-opacity:1;fill-rule:evenodd;stroke:none;stroke-width:0.47946879;stroke-linecap:round;stroke-linejoin:round;stroke-miterlimit:4;stroke-dasharray:none;stroke-opacity:1;filter:url(#filter4262)"
     d="m 118.08008,74.740234 c -6.55981,0 -11.83985,5.280036 -11.83985,11.839844 l 0,350.839842 c 0,6.55981 5.28004,11.83985 11.83985,11.83985 l 275.83984,0 c 6.55981,0 11.83985,-5.28004 11.83985,-11.83985 l 0,-215.58398 -140.9668,-147.095706 -146.71289,0 z"
     id="rect4136-6-2" />
  <path
     style="opacity:1;fill:#ffffff;fill-opacity:1;fill-rule:evenodd;stroke:#ffffff;stroke-width:0.47946879;stroke-linecap:round;stroke-linejoin:round;stroke-miterlimit:4;stroke-dasharray:none;stroke-opacity:1"
     d="M 118.08008 68.740234 C 111.52027 68.740234 106.24023 74.02027 106.24023 80.580078 L 106.24023 431.41992 C 106.24023 437.97973 111.52027 443.25977 118.08008 443.25977 L 393.91992 443.25977 C 400.47973 443.25977 405.75977 437.97973 405.75977 431.41992 L 405.75977 215.83594 L 264.79297 68.740234 L 118.08008 68.740234 z "
     id="rect4136-6" />
  <g
     transform="matrix(0.40039063,0,0,0.3203125,153.5,212)"
     id="g66"
     style="fill:#cacaca;fill-opacity:1">
    <path
       d="m 128,32 256,0 0,64 32,0 0,-64 C 416,14.344 401.687,0 384,0 L 128,0 C 110.344,0 96,14.344 96,32 l 0,64 32,0 0,-64"
       inkscape:connector-curvature="0"
       id="path68"
       style="fill:#cacaca;fill-opacity:1" />
    <path
       d="M 480,128 32,128 C 14.344,128 0,142.344 0,160 l 0,160 c 0,17.688 14.344,32 32,32 l 64,0 0,128 c 0,17.688 14.344,32 32,32 l 256,0 c 17.688,0 32,-14.313 32,-32 l 0,-128 64,0 c 17.688,0 32,-14.313 32,-32 l 0,-160 c 0,-17.656 -14.312,-32 -32,-32 m -96,352 -256,0 0,-224 256,0 0,224 m 64,-256 c -17.688,0 -32,-14.313 -32,-32 0,-17.656 14.313,-32 32,-32 17.687,0 32,14.344 32,32 0,17.688 -14.312,32 -32,32"
       inkscape:connector-curvature="0"
       id="path70"
       style="fill:#cacaca;fill-opacity:1" />
    <path
       d="m 160,288 128,0 0,32 -128,0 z"
       inkscape:connector-curvature="0"
       id="path72"
       style="fill:#cacaca;fill-opacity:1" />
    <path
       d="m 160,352 192,0 0,32 -192,0 z"
       inkscape:connector-curvature="0"
       id="path74"
       style="fill:#cacaca;fill-opacity:1" />
    <path
       d="m 160,416 192,0 0,32 -192,0 z"
       inkscape:connector-curvature="0"
       id="path76"
       style="fill:#cacaca;fill-opacity:1" />
  </g>
</svg>
