<?xml version="1.0" encoding="UTF-8" standalone="no"?>
<!-- Created with Inkscape (http://www.inkscape.org/) -->

<svg
   xmlns:dc="http://purl.org/dc/elements/1.1/"
   xmlns:cc="http://creativecommons.org/ns#"
   xmlns:rdf="http://www.w3.org/1999/02/22-rdf-syntax-ns#"
   xmlns:svg="http://www.w3.org/2000/svg"
   xmlns="http://www.w3.org/2000/svg"
   xmlns:sodipodi="http://sodipodi.sourceforge.net/DTD/sodipodi-0.dtd"
   xmlns:inkscape="http://www.inkscape.org/namespaces/inkscape"
   id="svg2"
   version="1.1"
   inkscape:version="0.91 r13725"
   width="512"
   height="512"
   sodipodi:docname="gnome-power-manager.svg"
   viewBox="0 0 512 512">
  <metadata
     id="metadata8">
    <rdf:RDF>
      <cc:Work
         rdf:about="">
        <dc:format>image/svg+xml</dc:format>
        <dc:type
           rdf:resource="http://purl.org/dc/dcmitype/StillImage" />
        <dc:title />
      </cc:Work>
    </rdf:RDF>
  </metadata>
  <defs
     id="defs6" />
  <sodipodi:namedview
     pagecolor="#ffffff"
     bordercolor="#666666"
     borderopacity="1"
     objecttolerance="10"
     gridtolerance="10"
     guidetolerance="10"
     inkscape:pageopacity="0"
     inkscape:pageshadow="2"
     inkscape:window-width="1366"
     inkscape:window-height="704"
     id="namedview4"
     showgrid="false"
     inkscape:zoom="0.65186405"
     inkscape:cx="87.831013"
     inkscape:cy="220.36814"
     inkscape:window-x="0"
     inkscape:window-y="28"
     inkscape:window-maximized="1"
     inkscape:current-layer="svg2"
     showguides="true"
     inkscape:guide-bbox="true"
     inkscape:document-units="px">
    <inkscape:grid
       type="xygrid"
       id="grid4141" />
  </sodipodi:namedview>
  <ellipse
     style="fill:#ffc82d;fill-opacity:1;stroke:none;stroke-width:20.45454025;stroke-linecap:round;stroke-linejoin:round;stroke-miterlimit:4;stroke-dasharray:none;stroke-opacity:1"
     id="path4136"
     cx="256"
     cy="255.99966"
     rx="224.99998"
     ry="224.99992" />
  <path
     style="fill:#000000;fill-opacity:1;stroke:none;stroke-width:20.45454025;stroke-linecap:round;stroke-linejoin:round;stroke-miterlimit:4;stroke-dasharray:none;stroke-opacity:1;opacity:0.3"
     d="M 480.79297 250.14648 A 224.99998 224.99992 0 0 1 256 471 A 224.99998 224.99992 0 0 1 31.207031 251.85352 A 224.99998 224.99992 0 0 0 31 256 A 224.99998 224.99992 0 0 0 256 481 A 224.99998 224.99992 0 0 0 481 256 A 224.99998 224.99992 0 0 0 480.79297 250.14648 z "
     id="path4136-2" />
  <path
     style="fill:#ffffff;fill-opacity:1;stroke:none;stroke-width:20.45454025;stroke-linecap:round;stroke-linejoin:round;stroke-miterlimit:4;stroke-dasharray:none;stroke-opacity:1;opacity:0.3"
     d="M 256 31 A 224.99998 224.99992 0 0 0 31 256 A 224.99998 224.99992 0 0 0 31.207031 261.85352 A 224.99998 224.99992 0 0 1 256 41 A 224.99998 224.99992 0 0 1 480.79297 260.14648 A 224.99998 224.99992 0 0 0 481 256 A 224.99998 224.99992 0 0 0 256 31 z "
     id="path4136-0" />
  <path
     style="fill:#3b3b3b;fill-opacity:1;fill-rule:evenodd;stroke:none;stroke-width:1px;stroke-linecap:butt;stroke-linejoin:miter;stroke-opacity:1"
     d="m 327.96485,95.360353 -180.00001,180.000007 96.07031,0 0,1.27929 -60,140 180.00001,-180 -96.07032,0 0,-1.27929 60.00001,-140.000007 z"
     id="path4143"
     inkscape:connector-curvature="0" />
</svg>
