<?xml version="1.0" encoding="UTF-8" standalone="no"?>
<!-- Created with Inkscape (http://www.inkscape.org/) -->

<svg
   xmlns:dc="http://purl.org/dc/elements/1.1/"
   xmlns:cc="http://creativecommons.org/ns#"
   xmlns:rdf="http://www.w3.org/1999/02/22-rdf-syntax-ns#"
   xmlns:svg="http://www.w3.org/2000/svg"
   xmlns="http://www.w3.org/2000/svg"
   xmlns:sodipodi="http://sodipodi.sourceforge.net/DTD/sodipodi-0.dtd"
   xmlns:inkscape="http://www.inkscape.org/namespaces/inkscape"
   id="svg2"
   version="1.1"
   inkscape:version="0.91 r13725"
   width="512"
   height="512"
   sodipodi:docname="system-lock-screen.svg"
   viewBox="0 0 512 512">
  <metadata
     id="metadata8">
    <rdf:RDF>
      <cc:Work
         rdf:about="">
        <dc:format>image/svg+xml</dc:format>
        <dc:type
           rdf:resource="http://purl.org/dc/dcmitype/StillImage" />
        <dc:title />
      </cc:Work>
    </rdf:RDF>
  </metadata>
  <defs
     id="defs6" />
  <sodipodi:namedview
     pagecolor="#ffffff"
     bordercolor="#666666"
     borderopacity="1"
     objecttolerance="10"
     gridtolerance="10"
     guidetolerance="10"
     inkscape:pageopacity="0"
     inkscape:pageshadow="2"
     inkscape:window-width="1920"
     inkscape:window-height="1016"
     id="namedview4"
     showgrid="false"
     inkscape:zoom="1.3037281"
     inkscape:cx="186.46055"
     inkscape:cy="216.16044"
     inkscape:window-x="0"
     inkscape:window-y="28"
     inkscape:window-maximized="1"
     inkscape:current-layer="svg2"
     inkscape:document-units="px" />
  <rect
     style="fill:#ffc82d;fill-opacity:1;fill-rule:evenodd;stroke:none;stroke-width:3.85841036;stroke-miterlimit:2.01260185"
     y="31"
     x="31"
     ry="224.99998"
     height="450"
     width="450"
     stroke-miterlimit="2.01260185242"
     id="shape01" />
  <path
     inkscape:connector-curvature="0"
     style="opacity:0.3;fill:#000000;fill-opacity:1;fill-rule:evenodd;stroke:none;stroke-width:3.85841036;stroke-miterlimit:2.01260185"
     d="M 31.0625,251 C 31.026571,252.66311 31,254.32797 31,256 c 0,124.64999 100.35001,225 225,225 124.64999,0 225,-100.35001 225,-225 0,-1.67203 -0.0266,-3.33689 -0.0625,-5 C 478.29496,373.32129 378.97796,471 256,471 133.02204,471 33.705043,373.32129 31.0625,251 Z"
     id="shape01-6" />
  <path
     style="opacity:1;fill:#ffffff;fill-opacity:1;fill-rule:evenodd;stroke:#ffffff;stroke-width:0.36422473;stroke-linecap:round;stroke-linejoin:round;stroke-miterlimit:4;stroke-dasharray:none;stroke-opacity:1"
     d="M 256 166.18164 A 89.817886 89.817886 0 0 0 166.18164 256 A 89.817886 89.817886 0 0 0 256 345.81836 A 89.817886 89.817886 0 0 0 345.81836 256 A 89.817886 89.817886 0 0 0 256 166.18164 z M 255.84766 181.1582 L 255.84766 330.83984 A 74.848236 74.848236 0 0 1 181.15234 256 A 74.848236 74.848236 0 0 1 255.84766 181.1582 z "
     id="path4135" />
  <path
     inkscape:connector-curvature="0"
     style="opacity:0.3;fill:#ffffff;fill-opacity:1;fill-rule:evenodd;stroke:none;stroke-width:3.85841036;stroke-miterlimit:2.01260185"
     d="M 256,31 C 131.35001,31 31,131.35001 31,256 c 0,1.67203 0.02657,3.33689 0.0625,5 C 33.705043,138.67871 133.02204,41 256,41 378.97796,41 478.29496,138.67871 480.9375,261 480.97343,259.33689 481,257.67203 481,256 481,131.35001 380.64999,31 256,31 Z"
     id="shape01-5" />
  <path
     style="fill:none;fill-rule:evenodd;stroke:#ffffff;stroke-width:15;stroke-linecap:butt;stroke-linejoin:miter;stroke-miterlimit:4;stroke-dasharray:none;stroke-opacity:1"
     d="m 256,105.99781 0,42.76903 0,-42.76903 z m 111.05713,49.57323 -30.52441,29.95752 30.52441,-29.95752 z m -222.45263,0.43213 30.52441,29.95752 -30.52441,-29.95752 z M 106,256.00072 l 42.76758,0 -42.76758,0 z m 257.23096,0 42.76904,0 -42.76904,0 z m -30.41748,73.12647 30.52441,29.95752 -30.52441,-29.95752 z m -146.12842,5.57813 -30.52442,29.95752 30.52442,-29.95752 z M 256,363.23315 l 0,42.76905 0,-42.76905 z"
     id="path4992"
     inkscape:connector-curvature="0" />
  <path
     style="opacity:1;fill:#2c2c2c;fill-opacity:1;fill-rule:evenodd;stroke:none;stroke-width:18.51791573;stroke-linecap:butt;stroke-linejoin:round;stroke-miterlimit:4;stroke-dasharray:none;stroke-dashoffset:0;stroke-opacity:1"
     d="m 404.42742,230.40827 c -36.56306,0 -65.99794,28.88636 -65.99794,64.76808 l 0,46.44978 -15.08514,0 0,146.80928 170,0 0,-146.80928 -13.96295,0 0,-46.44978 c 0,-35.88172 -29.43488,-64.76808 -65.99793,-64.76808 z m 2.36232,28.35596 5.43936,0 c 22.2134,0 40.05402,21.66316 40.09839,48.57169 l 0.0571,34.29021 -85.63614,0 -0.0571,-34.29021 c -0.0444,-26.90853 17.88502,-48.57169 40.09839,-48.57169 z m 3.68817,120.69092 c 10.43386,0.38734 18.69252,8.79404 18.70545,19.04079 -0.009,6.81089 -3.71878,13.10006 -9.73156,16.50152 l 5.32502,21.09249 c -3.90705,1.52792 -8.0768,2.3639 -12.41191,2.3639 l -5.43937,0 c -4.334,0 -8.49626,-0.83673 -12.39763,-2.3639 l 5.24281,-21.24331 c -5.86526,-3.43842 -9.4608,-9.64596 -9.47064,-16.3507 0.003,-10.06366 7.97106,-18.39434 18.20509,-19.03377 l 1.97274,-0.007 z"
     id="rect4151-3"
     inkscape:connector-curvature="0"
     sodipodi:nodetypes="ssccccccsssssccccsccccsscccccc" />
  <path
     style="opacity:1;fill:#3b3b3b;fill-opacity:1;fill-rule:evenodd;stroke:none;stroke-width:18.51791573;stroke-linecap:butt;stroke-linejoin:round;stroke-miterlimit:4;stroke-dasharray:none;stroke-dashoffset:0;stroke-opacity:1"
     d="m 404.42742,226.40827 c -36.56306,0 -65.99794,28.88636 -65.99794,64.76808 l 0,46.44978 -15.08514,0 0,146.80928 170,0 0,-146.80928 -13.96295,0 0,-46.44978 c 0,-35.88172 -29.43488,-64.76808 -65.99793,-64.76808 z m 2.36232,28.35596 5.43936,0 c 22.2134,0 40.05402,21.66316 40.09839,48.57169 l 0.0571,34.29021 -85.63614,0 -0.0571,-34.29021 c -0.0444,-26.90853 17.88502,-48.57169 40.09839,-48.57169 z m 3.68817,120.69092 c 10.43386,0.38734 18.69252,8.79404 18.70545,19.04079 -0.009,6.81089 -3.71878,13.10006 -9.73156,16.50152 l 5.32502,21.09249 c -3.90705,1.52792 -8.0768,2.3639 -12.41191,2.3639 l -5.43937,0 c -4.334,0 -8.49626,-0.83673 -12.39763,-2.3639 l 5.24281,-21.24331 c -5.86526,-3.43842 -9.4608,-9.64596 -9.47064,-16.3507 0.003,-10.06366 7.97106,-18.39434 18.20509,-19.03377 l 1.97274,-0.007 z"
     id="rect4151"
     inkscape:connector-curvature="0"
     sodipodi:nodetypes="ssccccccsssssccccsccccsscccccc" />
</svg>
