<?xml version="1.0" encoding="UTF-8" standalone="no"?>
<!-- Created with Inkscape (http://www.inkscape.org/) -->

<svg
   xmlns:dc="http://purl.org/dc/elements/1.1/"
   xmlns:cc="http://creativecommons.org/ns#"
   xmlns:rdf="http://www.w3.org/1999/02/22-rdf-syntax-ns#"
   xmlns:svg="http://www.w3.org/2000/svg"
   xmlns="http://www.w3.org/2000/svg"
   xmlns:xlink="http://www.w3.org/1999/xlink"
   xmlns:sodipodi="http://sodipodi.sourceforge.net/DTD/sodipodi-0.dtd"
   xmlns:inkscape="http://www.inkscape.org/namespaces/inkscape"
   id="svg2"
   version="1.1"
   inkscape:version="0.91 r13725"
   width="512"
   height="512"
   sodipodi:docname="background.svg"
   viewBox="0 0 512 512">
  <metadata
     id="metadata8">
    <rdf:RDF>
      <cc:Work
         rdf:about="">
        <dc:format>image/svg+xml</dc:format>
        <dc:type
           rdf:resource="http://purl.org/dc/dcmitype/StillImage" />
        <dc:title></dc:title>
      </cc:Work>
    </rdf:RDF>
  </metadata>
  <defs
     id="defs6">
    <linearGradient
       gradientTransform="matrix(0.92592622,0,0,0.68040007,18.962864,-334.41292)"
       inkscape:collect="always"
       xlink:href="#linearGradient4205"
       id="linearGradient4211"
       x1="-1.0542723"
       y1="1002.4045"
       x2="437.98178"
       y2="663.67993"
       gradientUnits="userSpaceOnUse" />
    <linearGradient
       inkscape:collect="always"
       id="linearGradient4205">
      <stop
         style="stop-color:#d34d1e;stop-opacity:0"
         offset="0"
         id="stop4207" />
      <stop
         style="stop-color:#510b48;stop-opacity:1"
         offset="1"
         id="stop4209" />
    </linearGradient>
    <filter
       inkscape:collect="always"
       style="color-interpolation-filters:sRGB"
       id="filter4172"
       x="-0.022298088"
       width="1.0445962"
       y="-0.025983178"
       height="1.0519664">
      <feGaussianBlur
         inkscape:collect="always"
         stdDeviation="0.83805267"
         id="feGaussianBlur4174" />
    </filter>
  </defs>
  <sodipodi:namedview
     pagecolor="#ffffff"
     bordercolor="#666666"
     borderopacity="1"
     objecttolerance="10"
     gridtolerance="10"
     guidetolerance="10"
     inkscape:pageopacity="0"
     inkscape:pageshadow="2"
     inkscape:window-width="1366"
     inkscape:window-height="704"
     id="namedview4"
     showgrid="false"
     inkscape:zoom="0.8076172"
     inkscape:cx="208.50338"
     inkscape:cy="256.21515"
     inkscape:window-x="0"
     inkscape:window-y="28"
     inkscape:window-maximized="1"
     inkscape:current-layer="svg2" />
  <rect
     ry="0"
     y="357.5228"
     x="210.89912"
     height="77.408791"
     width="90.201744"
     id="rect4147"
     style="opacity:1;fill:#919191;fill-opacity:1;stroke:none;stroke-width:5.72569084;stroke-linecap:round;stroke-miterlimit:4;stroke-dasharray:22.90276308, 22.90276307999999972;stroke-dashoffset:42;stroke-opacity:1" />
  <rect
     style="opacity:1;fill:#ababab;fill-opacity:1;stroke:none;stroke-width:0;stroke-miterlimit:4;stroke-dasharray:none;stroke-opacity:1"
     id="rect4186"
     width="171.9104"
     height="16.070213"
     x="170.0448"
     y="433.33286"
     rx="6.2192101"
     ry="6.2192101" />
  <rect
     ry="0"
     y="285.5228"
     x="210.89912"
     height="77.408791"
     width="90.201744"
     id="rect4147-3"
     style="opacity:0.73999999;fill:#202020;fill-opacity:1;stroke:none;stroke-width:5.72569084;stroke-linecap:round;stroke-miterlimit:4;stroke-dasharray:22.90276308, 22.90276307999999972;stroke-dashoffset:42;stroke-opacity:1;filter:url(#filter4172)" />
  <rect
     style="opacity:1;fill:#000000;fill-opacity:1;stroke:none;stroke-width:0;stroke-miterlimit:4;stroke-dasharray:none;stroke-opacity:1"
     id="rect4169"
     width="469.92941"
     height="295.74158"
     x="21.035299"
     y="62.597874"
     rx="22.737274"
     ry="22.737274" />
  <rect
     style="fill:#d34d1e;fill-opacity:1;stroke:none;stroke-width:8.47843456"
     id="rect907-3"
     width="435.18533"
     height="247.10889"
     x="38.407341"
     y="83.877548"
     rx="17.408871"
     ry="17.408871" />
  <path
     style="fill:url(#linearGradient4211);fill-opacity:1;stroke:none;stroke-width:8.47843456"
     d="M 211.87891 83.876953 L 38.408203 201.14844 L 38.408203 313.57812 C 38.408203 323.22264 46.171892 330.98633 55.816406 330.98633 L 456.18359 330.98633 C 465.82811 330.98633 473.5918 323.22264 473.5918 313.57812 L 473.5918 101.28711 C 473.5918 91.642595 465.82811 83.876953 456.18359 83.876953 L 211.87891 83.876953 z M 43.494141 88.964844 C 43.100809 89.358175 42.727268 89.771603 42.373047 90.201172 C 42.727248 89.771563 43.102783 89.358216 43.496094 88.964844 C 43.495753 88.965185 43.494482 88.964503 43.494141 88.964844 z M 41.373047 91.541016 C 40.748968 92.466485 40.210568 93.456481 39.771484 94.498047 C 40.210755 93.455902 40.748611 92.466957 41.373047 91.541016 z M 38.759766 97.769531 C 38.528622 98.904848 38.408203 100.08155 38.408203 101.28711 C 38.408203 100.08154 38.52864 98.904883 38.759766 97.769531 z "
     id="rect907" />
  <path
     inkscape:connector-curvature="0"
     style="fill:#f3a379;fill-opacity:0.95532644;stroke:none;stroke-width:8.47843456"
     d="m 194.47071,201.14844 c 9.64451,0 17.4082,-7.76564 17.4082,-17.41016 l 0,-99.86133 -173.470707,117.27149 156.062507,0 z"
     id="rect907-37-2" />
  <path
     inkscape:connector-curvature="0"
     style="fill:#9579f3;fill-opacity:0.95532644;stroke:none;stroke-width:8.47843456"
     d="m 55.816403,83.87695 c -9.64451,0 -17.4082,7.76564 -17.4082,17.41016 l 0,99.86133 173.470707,-117.27149 -156.062507,0 z"
     id="rect907-37-2-8" />
</svg>
