<?xml version="1.0" encoding="UTF-8" standalone="no"?>
<!-- Created with Inkscape (http://www.inkscape.org/) -->

<svg
   xmlns:dc="http://purl.org/dc/elements/1.1/"
   xmlns:cc="http://creativecommons.org/ns#"
   xmlns:rdf="http://www.w3.org/1999/02/22-rdf-syntax-ns#"
   xmlns:svg="http://www.w3.org/2000/svg"
   xmlns="http://www.w3.org/2000/svg"
   xmlns:xlink="http://www.w3.org/1999/xlink"
   xmlns:sodipodi="http://sodipodi.sourceforge.net/DTD/sodipodi-0.dtd"
   xmlns:inkscape="http://www.inkscape.org/namespaces/inkscape"
   width="64"
   height="64"
   id="svg4152"
   version="1.1"
   inkscape:version="0.91 r13725"
   viewBox="0 0 64 64"
   sodipodi:docname="applications-accessories.svg">
  <defs
     id="defs4154">
    <linearGradient
       inkscape:collect="always"
       id="linearGradient4858">
      <stop
         style="stop-color:#636363;stop-opacity:1"
         offset="0"
         id="stop4860" />
      <stop
         style="stop-color:#bababa;stop-opacity:0"
         offset="1"
         id="stop4862" />
    </linearGradient>
    <linearGradient
       inkscape:collect="always"
       id="linearGradient4815">
      <stop
         style="stop-color:#686868;stop-opacity:1"
         offset="0"
         id="stop4817" />
      <stop
         style="stop-color:#878787;stop-opacity:0;"
         offset="1"
         id="stop4819" />
    </linearGradient>
    <linearGradient
       inkscape:collect="always"
       id="linearGradient4744">
      <stop
         style="stop-color:#e6e6e6;stop-opacity:1"
         offset="0"
         id="stop4746" />
      <stop
         style="stop-color:#fbfbfb;stop-opacity:0"
         offset="1"
         id="stop4748" />
    </linearGradient>
    <linearGradient
       inkscape:collect="always"
       xlink:href="#linearGradient4744"
       id="linearGradient4750"
       x1="26.624029"
       y1="34.428398"
       x2="38.928394"
       y2="38.15728"
       gradientUnits="userSpaceOnUse"
       gradientTransform="matrix(0.76741839,-0.64664054,0.64247218,0.77239739,-25.040231,24.8268)" />
    <linearGradient
       inkscape:collect="always"
       xlink:href="#linearGradient4815"
       id="linearGradient4821"
       x1="55"
       y1="29"
       x2="60"
       y2="14"
       gradientUnits="userSpaceOnUse"
       gradientTransform="matrix(-0.10824244,-0.77587832,0.77087689,-0.10894472,7.0943098,95.491419)" />
    <linearGradient
       inkscape:collect="always"
       xlink:href="#linearGradient4858"
       id="linearGradient4864"
       x1="51"
       y1="36"
       x2="63"
       y2="28"
       gradientUnits="userSpaceOnUse"
       gradientTransform="matrix(-0.07658974,0.81864026,-0.90373688,-0.08565183,77.865796,-6.6308159)" />
    <linearGradient
       inkscape:collect="always"
       xlink:href="#linearGradient4902"
       id="linearGradient4908"
       x1="54.203377"
       y1="31.061531"
       x2="52.342476"
       y2="22.637016"
       gradientUnits="userSpaceOnUse"
       gradientTransform="matrix(-0.91754254,0.68850925,-0.68407102,-0.92349553,96.61851,4.5497393)" />
    <linearGradient
       inkscape:collect="always"
       id="linearGradient4902">
      <stop
         style="stop-color:#838383;stop-opacity:1"
         offset="0"
         id="stop4904" />
      <stop
         style="stop-color:#ffffff;stop-opacity:0"
         offset="1"
         id="stop4906" />
    </linearGradient>
  </defs>
  <sodipodi:namedview
     id="base"
     pagecolor="#ffffff"
     bordercolor="#666666"
     borderopacity="1.0"
     inkscape:pageopacity="0.0"
     inkscape:pageshadow="2"
     inkscape:zoom="7.2407734"
     inkscape:cx="33.44251"
     inkscape:cy="33.790715"
     inkscape:current-layer="layer1"
     showgrid="false"
     inkscape:document-units="px"
     inkscape:grid-bbox="true"
     inkscape:window-width="1366"
     inkscape:window-height="704"
     inkscape:window-x="0"
     inkscape:window-y="30"
     inkscape:window-maximized="1">
    <inkscape:grid
       type="xygrid"
       id="grid4700" />
  </sodipodi:namedview>
  <metadata
     id="metadata4157">
    <rdf:RDF>
      <cc:Work
         rdf:about="">
        <dc:format>image/svg+xml</dc:format>
        <dc:type
           rdf:resource="http://purl.org/dc/dcmitype/StillImage" />
        <dc:title></dc:title>
      </cc:Work>
    </rdf:RDF>
  </metadata>
  <g
     id="layer1"
     inkscape:label="Layer 1"
     inkscape:groupmode="layer">
    <path
       style="fill:#949494;fill-opacity:1;fill-rule:evenodd;stroke:none;stroke-width:1px;stroke-linecap:butt;stroke-linejoin:miter;stroke-opacity:1"
       d="m 21.131176,17.755263 5.801665,-0.285588 c 3.010067,0.152024 2.016264,2.321033 4.193647,3.798322 1.231491,0.842551 3.53798,1.115396 4.725395,0.224377 -1.043679,-0.705097 -2.076611,-1.418249 -3.233623,-2.335942 -1.702419,-1.162012 -0.0055,-2.871863 1.459513,-1.88894 l 4.934463,4.532252 C 40.892588,18.057692 37.532216,9.5423663 17.855668,13.466412 Z"
       id="path4877"
       inkscape:connector-curvature="0"
       sodipodi:nodetypes="ccccccccc" />
    <path
       style="fill:url(#linearGradient4908);fill-opacity:1;fill-rule:evenodd;stroke:none;stroke-width:1px;stroke-linecap:butt;stroke-linejoin:miter;stroke-opacity:1"
       d="m 21.131176,17.755263 5.801665,-0.285588 c 3.010067,0.152024 2.016264,2.321033 4.193647,3.798322 1.231491,0.842551 3.53798,1.115396 4.725395,0.224377 -1.043679,-0.705097 -2.076611,-1.418249 -3.233623,-2.335942 -1.702419,-1.162012 -0.0055,-2.871863 1.459513,-1.88894 l 4.934463,4.532252 C 40.892588,18.057692 37.532216,9.5423663 17.855668,13.466412 Z"
       id="path4877-6"
       inkscape:connector-curvature="0"
       sodipodi:nodetypes="ccccccccc" />
    <path
       style="fill:#757575;fill-opacity:1;fill-rule:evenodd;stroke:none;stroke-width:1px;stroke-linecap:butt;stroke-linejoin:miter;stroke-opacity:1"
       d="m 29.753195,30.104266 22.593421,2.141295 c 3.347311,0.286746 6.290857,2.593348 8.654421,4.949719 -3.376848,0.677263 -5.367387,2.705057 -7.00828,4.312155 -1.256912,-1.055855 -1.720385,-1.572736 -3.162595,-2.798405 l -1.960651,1.465979 -1.654295,-1.808583 -1.960651,1.465978 -1.654296,-1.808583 -1.96065,1.465977 -1.654295,-1.808585 -1.960652,1.465979 -1.654295,-1.808583 -7.229894,-0.685216 z"
       id="path4823"
       inkscape:connector-curvature="0"
       sodipodi:nodetypes="ccccccccccccccc"
       inkscape:transform-center-x="-3.0994322"
       inkscape:transform-center-y="-1.0765778" />
    <path
       style="fill:#bcbcbc;fill-opacity:1;fill-rule:evenodd;stroke:none;stroke-width:1px;stroke-linecap:butt;stroke-linejoin:miter;stroke-opacity:1"
       d="M 61.001037,37.19528 C 59.88997,36.087593 58.64555,34.99911 57.296465,34.118068 l -4.429059,2.306345 -23.497159,-2.226946 -0.22977,2.455919 7.229895,0.685215 1.654295,1.808583 1.960652,-1.465978 1.654295,1.808584 1.96065,-1.465977 1.654296,1.808584 1.960651,-1.465979 1.654295,1.808584 1.960651,-1.465979 c 1.44221,1.225667 1.905684,1.74255 3.162595,2.798404 1.640893,-1.607098 3.631432,-3.634892 7.00828,-4.312154 z"
       id="path4825"
       inkscape:connector-curvature="0"
       inkscape:transform-center-x="-3.0994291"
       inkscape:transform-center-y="0.93031911" />
    <path
       style="fill:url(#linearGradient4864);fill-opacity:1;fill-rule:evenodd;stroke:none;stroke-width:1px;stroke-linecap:butt;stroke-linejoin:miter;stroke-opacity:1"
       d="m 29.753195,30.104266 22.593421,2.141295 c 3.347311,0.286746 6.290857,2.593348 8.654421,4.949719 -3.376848,0.677263 -5.367387,2.705057 -7.00828,4.312155 -1.256912,-1.055855 -1.720385,-1.572736 -3.162595,-2.798405 l -1.960651,1.465979 -1.654295,-1.808583 -1.960651,1.465978 -1.654296,-1.808583 -1.96065,1.465977 -1.654295,-1.808585 -1.960652,1.465979 -1.654295,-1.808583 -7.229894,-0.685216 z"
       id="path4823-5"
       inkscape:connector-curvature="0"
       sodipodi:nodetypes="ccccccccccccccc"
       inkscape:transform-center-x="-3.0994322"
       inkscape:transform-center-y="-1.0765778" />
    <path
       style="fill:#878787;fill-opacity:1;fill-rule:evenodd;stroke:none;stroke-width:1px;stroke-linecap:butt;stroke-linejoin:miter;stroke-opacity:1"
       d="M 31.746386,52.448657 12.474464,55.172276 4.5492091,54.709967 C 6.8276018,50.125648 8.7918178,48.614691 13.042036,47.97148 l 17.730168,-2.505727 z"
       id="path4771"
       inkscape:connector-curvature="0"
       sodipodi:nodetypes="cccccc" />
    <path
       style="fill:#b4b4b4;fill-opacity:1;fill-rule:evenodd;stroke:none;stroke-width:1px;stroke-linecap:butt;stroke-linejoin:miter;stroke-opacity:1"
       d="m 4.5492091,54.709967 2.5632827,0.149225 c 1.224395,-1.695203 2.675087,-3.090874 4.8207602,-3.566309 l 19.271922,-2.723617 -0.43297,-3.103513 -17.730168,2.505727 c -4.2502192,0.643206 -6.2144342,2.154168 -8.4928269,6.738487 z"
       id="path4771-7"
       inkscape:connector-curvature="0" />
    <path
       style="fill:url(#linearGradient4821);fill-opacity:1;fill-rule:evenodd;stroke:none;stroke-width:1px;stroke-linecap:butt;stroke-linejoin:miter;stroke-opacity:1"
       d="M 31.746386,52.448657 12.474464,55.172276 4.5492091,54.709967 C 6.8276018,50.125648 8.7918178,48.614691 13.042036,47.97148 l 17.730168,-2.505727 z"
       id="path4771-5"
       inkscape:connector-curvature="0"
       sodipodi:nodetypes="cccccc" />
    <path
       style="opacity:1;fill:#e12121;fill-opacity:1;fill-rule:evenodd;stroke:#878787;stroke-width:2.00818372;stroke-linecap:round;stroke-linejoin:round;stroke-miterlimit:4;stroke-dasharray:none;stroke-opacity:1"
       d="M 5.6831158,10.762559 A 7.5063781,7.5550792 0 0 0 4.4156513,20.965258 l -0.020981,0.01768 0.351352,0.422404 26.1757247,31.469161 0.03447,-0.02905 a 7.5063781,7.5550792 0 0 0 10.062868,0.398963 7.5063781,7.5550792 0 0 0 1.385454,-10.045524 l 0.02849,-0.02399 -26.175724,-31.469159 -0.351352,-0.422406 -0.01648,0.01389 A 7.5063781,7.5550792 0 0 0 5.6831158,10.762559 Z"
       id="path4709"
       inkscape:connector-curvature="0" />
    <path
       style="fill:#ffffff;fill-opacity:1;fill-rule:evenodd;stroke:none;stroke-width:1px;stroke-linecap:butt;stroke-linejoin:miter;stroke-opacity:1"
       d="m 8.3484038,21.813099 4.2831482,5.149316 4.699635,0.419189 2.558062,-2.155468 0.416488,-4.730126 -4.283148,-5.149317 -7.6741852,6.466406 z m 3.9846762,-1.421137 1.598788,-1.347168 1.338484,1.609162 1.598788,-1.347168 1.338484,1.60916 -1.598789,1.347168 1.338486,1.609162 -1.59879,1.347168 -1.338484,-1.609161 -1.598789,1.347168 -1.338483,-1.609162 1.598788,-1.347167 -1.338483,-1.609162 z"
       id="path4702"
       inkscape:connector-curvature="0" />
    <path
       inkscape:connector-curvature="0"
       style="opacity:0.95499998;fill:none;fill-opacity:1;fill-rule:evenodd;stroke:url(#linearGradient4750);stroke-width:2.00818372;stroke-linecap:round;stroke-linejoin:round;stroke-miterlimit:4;stroke-dasharray:none;stroke-opacity:1"
       d="M 5.6831128,10.762562 A 7.5063781,7.5550792 0 0 0 4.4156482,20.96526 l -0.020981,0.01768 0.3513521,0.422405 26.1757247,31.46916 0.03447,-0.02905 a 7.5063781,7.5550792 0 0 0 10.062868,0.398963 7.5063781,7.5550792 0 0 0 1.385454,-10.045524 l 0.02848,-0.02399 L 16.257292,11.705745 15.90594,11.28334 15.88946,11.29723 A 7.5063781,7.5550792 0 0 0 5.6831128,10.762562 Z"
       id="path4709-6" />
  </g>
</svg>
