<?xml version="1.0" encoding="UTF-8" standalone="no"?>
<!-- Created with Inkscape (http://www.inkscape.org/) -->

<svg
   xmlns:dc="http://purl.org/dc/elements/1.1/"
   xmlns:cc="http://creativecommons.org/ns#"
   xmlns:rdf="http://www.w3.org/1999/02/22-rdf-syntax-ns#"
   xmlns:svg="http://www.w3.org/2000/svg"
   xmlns="http://www.w3.org/2000/svg"
   xmlns:xlink="http://www.w3.org/1999/xlink"
   xmlns:sodipodi="http://sodipodi.sourceforge.net/DTD/sodipodi-0.dtd"
   xmlns:inkscape="http://www.inkscape.org/namespaces/inkscape"
   width="64"
   height="64"
   id="svg5691"
   version="1.1"
   inkscape:version="0.91 r13725"
   viewBox="0 0 64 64"
   sodipodi:docname="applications-cardgames.svg">
  <defs
     id="defs5693">
    <radialGradient
       inkscape:collect="always"
       xlink:href="#linearGradient5591"
       id="radialGradient5597-3"
       cx="24"
       cy="24.751959"
       fx="24"
       fy="24.751959"
       r="17.5"
       gradientTransform="matrix(-1.6138789,-0.31751821,0.29805426,-1.5149479,55.173255,80.508982)"
       gradientUnits="userSpaceOnUse" />
    <linearGradient
       inkscape:collect="always"
       id="linearGradient5591">
      <stop
         style="stop-color:#000000;stop-opacity:1;"
         offset="0"
         id="stop5593" />
      <stop
         style="stop-color:#ffffff;stop-opacity:1"
         offset="1"
         id="stop5595" />
    </linearGradient>
    <radialGradient
       inkscape:collect="always"
       xlink:href="#linearGradient5591"
       id="radialGradient5597"
       cx="24"
       cy="24.751959"
       fx="24"
       fy="24.751959"
       r="17.5"
       gradientTransform="matrix(-1.6138789,-0.31751821,0.29805426,-1.5149479,69.454752,73.376545)"
       gradientUnits="userSpaceOnUse" />
  </defs>
  <sodipodi:namedview
     id="base"
     pagecolor="#ffffff"
     bordercolor="#666666"
     borderopacity="1.0"
     inkscape:pageopacity="0.0"
     inkscape:pageshadow="2"
     inkscape:zoom="5.5"
     inkscape:cx="-5.2727271"
     inkscape:cy="31.636364"
     inkscape:current-layer="layer1"
     showgrid="true"
     inkscape:document-units="px"
     inkscape:grid-bbox="true"
     inkscape:window-width="1366"
     inkscape:window-height="704"
     inkscape:window-x="0"
     inkscape:window-y="30"
     inkscape:window-maximized="1" />
  <metadata
     id="metadata5696">
    <rdf:RDF>
      <cc:Work
         rdf:about="">
        <dc:format>image/svg+xml</dc:format>
        <dc:type
           rdf:resource="http://purl.org/dc/dcmitype/StillImage" />
        <dc:title />
      </cc:Work>
    </rdf:RDF>
  </metadata>
  <g
     id="layer1"
     inkscape:label="Layer 1"
     inkscape:groupmode="layer">
    <rect
       style="fill:none;fill-opacity:0.28693183;fill-rule:evenodd;stroke:none;stroke-width:1px;stroke-linecap:butt;stroke-linejoin:miter;stroke-opacity:1"
       id="rect3312"
       width="50"
       height="50"
       x="7.000001"
       y="7.5" />
    <rect
       ry="3.0495026"
       y="6.6293015"
       x="21.762005"
       height="43.257759"
       width="32.67416"
       id="rect4768"
       style="fill:#e7e5d3;fill-opacity:1;fill-rule:evenodd;stroke:url(#radialGradient5597);stroke-width:0.96100473;stroke-linecap:butt;stroke-linejoin:miter;stroke-miterlimit:4;stroke-dasharray:none;stroke-opacity:1" />
    <rect
       style="fill:none;fill-opacity:1;fill-rule:evenodd;stroke:none;stroke-width:1px;stroke-linecap:butt;stroke-linejoin:miter;stroke-opacity:1"
       id="rect4040"
       width="32.67416"
       height="38.440189"
       x="21.698133"
       y="8.6761398"
       ry="2.709883" />
    <path
       style="fill:#000000;fill-opacity:1;fill-rule:evenodd;stroke:none;stroke-width:1px;stroke-linecap:butt;stroke-linejoin:miter;stroke-opacity:1"
       d="m 38.418008,17.525674 c -1.552879,0.713781 -5.564243,4.616844 -5.973045,7.689344 -0.399053,2.999229 3.330621,4.715656 5.508649,2.185927 -0.02924,1.341895 -0.262927,2.366552 -0.736492,3.08725 -0.617017,0.93901 -1.646052,1.465979 -3.407749,1.609031 a 0.40291072,0.40291072 0 0 0 0.03271,0.804521 l 8.973956,0 a 0.40291072,0.40291072 0 0 0 0.06933,-0.799282 c -1.926874,-0.331427 -2.90253,-0.914354 -3.45615,-1.834041 -0.407898,-0.677604 -0.591315,-1.602302 -0.66062,-2.803375 1.970029,2.411187 6.144543,0.666239 5.70618,-2.22125 -0.467207,-3.0775 -4.602033,-7.033552 -6.056766,-7.718125 z"
       id="path5496"
       inkscape:connector-curvature="0" />
    <path
       style="fill:#000000;fill-opacity:1;fill-rule:evenodd;stroke:none;stroke-width:1px;stroke-linecap:butt;stroke-linejoin:miter;stroke-opacity:1"
       d="m 26.787409,9.0668199 c -0.446453,0.2052083 -1.59972,1.3273331 -1.717251,2.2106771 -0.114727,0.862282 0.957554,1.355761 1.583737,0.628459 -0.0083,0.385791 -0.07559,0.680385 -0.211742,0.887583 -0.177392,0.269969 -0.473239,0.421469 -0.979727,0.462604 a 0.11583683,0.11583683 0 0 0 0.0094,0.231292 l 2.580012,0 a 0.11583683,0.11583683 0 0 0 0.01993,-0.229792 c -0.553975,-0.09531 -0.834476,-0.262875 -0.993641,-0.527281 -0.117271,-0.194813 -0.170004,-0.460667 -0.189928,-0.805979 0.566383,0.693218 1.766555,0.191552 1.640526,-0.638604 -0.134323,-0.884782 -1.323084,-2.0221466 -1.74132,-2.2189591 z"
       id="path5496-9"
       inkscape:connector-curvature="0" />
    <path
       style="fill:#000000;fill-opacity:1;fill-rule:evenodd;stroke:none;stroke-width:1px;stroke-linecap:butt;stroke-linejoin:miter;stroke-opacity:1"
       d="m 49.371021,46.1616 c -0.446454,-0.205218 -1.59972,-1.327343 -1.717251,-2.210687 -0.114727,-0.862281 0.957554,-1.35575 1.583736,-0.628458 -0.0083,-0.385792 -0.07559,-0.680386 -0.211742,-0.887584 -0.177391,-0.269968 -0.473238,-0.421468 -0.979727,-0.462593 a 0.11583683,0.11583683 0 0 1 0.0094,-0.231302 l 2.580013,0 a 0.11583683,0.11583683 0 0 1 0.01993,0.229791 c -0.553976,0.09531 -0.834477,0.262875 -0.993643,0.527292 -0.117271,0.194812 -0.170003,0.460656 -0.189928,0.805969 0.566383,-0.693219 1.766556,-0.191542 1.640527,0.638614 -0.134323,0.884771 -1.323084,2.022135 -1.741321,2.218958 z"
       id="path5496-1"
       inkscape:connector-curvature="0" />
    <rect
       ry="3.0495026"
       y="13.761736"
       x="7.4805021"
       height="43.257759"
       width="32.67416"
       id="rect4768-5"
       style="fill:#ffffff;fill-opacity:1;fill-rule:evenodd;stroke:url(#radialGradient5597-3);stroke-width:0.96100473;stroke-linecap:butt;stroke-linejoin:miter;stroke-miterlimit:4;stroke-dasharray:none;stroke-opacity:1" />
    <rect
       style="fill:none;fill-opacity:1;fill-rule:evenodd;stroke:none;stroke-width:1px;stroke-linecap:butt;stroke-linejoin:miter;stroke-opacity:1"
       id="rect4040-3"
       width="32.67416"
       height="38.440189"
       x="7.4805021"
       y="16.170527"
       ry="2.709883" />
    <path
       style="fill:#e04613;fill-opacity:1;fill-rule:evenodd;stroke:none;stroke-width:1px;stroke-linecap:butt;stroke-linejoin:miter;stroke-opacity:1"
       d="m 23.670978,29.974663 c 2.464344,-4.720364 9.452196,-2.15227 8.775622,2.304323 -0.670354,4.415636 -6.604556,10.092458 -8.691828,11.074708 -2.228092,-1.024146 -7.983076,-6.624343 -8.569631,-11.032812 -0.609975,-4.584489 5.503603,-7.080552 8.485837,-2.346219 z"
       id="path5496-5"
       sodipodi:nodetypes="czczc"
       inkscape:connector-curvature="0" />
    <path
       sodipodi:nodetypes="czczc"
       id="path6950-6"
       d="m 13.259009,17.193237 c 0.697837,-1.336688 2.67661,-0.609469 2.485023,0.65252 -0.189827,1.250386 -1.870235,2.857917 -2.461295,3.136063 -0.630936,-0.290011 -2.260592,-1.875844 -2.426689,-3.124198 -0.172729,-1.298208 1.558473,-2.005031 2.402961,-0.664385 z"
       style="fill:#e04613;fill-opacity:1;fill-rule:evenodd;stroke:none;stroke-width:1px;stroke-linecap:butt;stroke-linejoin:miter;stroke-opacity:1"
       inkscape:connector-curvature="0" />
    <path
       style="fill:#e04613;fill-opacity:1;fill-rule:evenodd;stroke:none;stroke-width:1px;stroke-linecap:butt;stroke-linejoin:miter;stroke-opacity:1"
       d="m 34.401114,52.934694 c 0.697836,1.336687 2.676609,0.609469 2.485023,-0.652521 -0.189826,-1.250385 -1.870235,-2.857916 -2.461295,-3.136062 -0.630937,0.29001 -2.260594,1.875843 -2.426691,3.124198 -0.172729,1.298208 1.558475,2.00502 2.402963,0.664385 z"
       id="path6952-2"
       sodipodi:nodetypes="czczc"
       inkscape:connector-curvature="0" />
  </g>
</svg>
