<?xml version="1.0" encoding="UTF-8" standalone="no"?>
<!-- Created with Inkscape (http://www.inkscape.org/) -->

<svg
   xmlns:dc="http://purl.org/dc/elements/1.1/"
   xmlns:cc="http://creativecommons.org/ns#"
   xmlns:rdf="http://www.w3.org/1999/02/22-rdf-syntax-ns#"
   xmlns:svg="http://www.w3.org/2000/svg"
   xmlns="http://www.w3.org/2000/svg"
   xmlns:xlink="http://www.w3.org/1999/xlink"
   xmlns:sodipodi="http://sodipodi.sourceforge.net/DTD/sodipodi-0.dtd"
   xmlns:inkscape="http://www.inkscape.org/namespaces/inkscape"
   id="svg2"
   version="1.1"
   inkscape:version="0.91 r13725"
   width="512"
   height="512"
   sodipodi:docname="preferences-desktop-locale.svg">
  <metadata
     id="metadata8">
    <rdf:RDF>
      <cc:Work
         rdf:about="">
        <dc:format>image/svg+xml</dc:format>
        <dc:type
           rdf:resource="http://purl.org/dc/dcmitype/StillImage" />
        <dc:title />
      </cc:Work>
    </rdf:RDF>
  </metadata>
  <defs
     id="defs6">
    <filter
       inkscape:collect="always"
       id="filter4254">
      <feGaussianBlur
         inkscape:collect="always"
         stdDeviation="0.34"
         id="feGaussianBlur4256" />
    </filter>
    <linearGradient
       inkscape:collect="always"
       xlink:href="#linearGradient4104"
       id="linearGradient4691"
       gradientUnits="userSpaceOnUse"
       gradientTransform="matrix(0,-1.0969111,1.0969113,0,-375.98168,644.76775)"
       x1="235.83813"
       y1="659.828"
       x2="498.78494"
       y2="469.78543" />
    <linearGradient
       id="linearGradient4104">
      <stop
         style="stop-color:#008ec7;stop-opacity:1;"
         offset="0"
         id="stop4106" />
      <stop
         style="stop-color:#1ecdff;stop-opacity:1"
         offset="1"
         id="stop4108" />
    </linearGradient>
  </defs>
  <sodipodi:namedview
     pagecolor="#ffffff"
     bordercolor="#666666"
     borderopacity="1"
     objecttolerance="10"
     gridtolerance="10"
     guidetolerance="10"
     inkscape:pageopacity="0"
     inkscape:pageshadow="2"
     inkscape:window-width="1017"
     inkscape:window-height="704"
     id="namedview4"
     showgrid="false"
     inkscape:zoom="0.23046875"
     inkscape:cx="386.76884"
     inkscape:cy="260.1599"
     inkscape:window-x="15"
     inkscape:window-y="28"
     inkscape:window-maximized="0"
     inkscape:current-layer="svg2" />
  <path
     style="opacity:1;fill:#ffffff;fill-opacity:1;stroke:#585858;stroke-width:0;stroke-miterlimit:4;stroke-dasharray:none;stroke-opacity:1"
     d="m 211.62647,80.567281 c -2.43204,0.04687 -5.15438,0.349802 -8.60554,0.853476 -35.12025,5.125561 -69.58262,20.265773 -97.92316,43.017463 -7.382681,5.92676 -23.245186,21.34005 -26.174723,25.43433 l -1.674234,2.34006 2.071707,3.03293 c 1.139313,1.66856 2.071698,3.60225 2.071698,4.29726 0,3.63558 8.742394,4.04757 16.82673,0.79185 8.184132,-3.29593 12.853632,-3.45337 21.470732,-0.72276 5.19105,1.64495 7.97421,2.11168 9.99855,1.67894 6.24466,-1.3349 7.82143,-3.40077 9.58046,-12.55003 0.68816,-3.57936 2.04032,-7.61179 3.00537,-8.96056 3.00749,-4.20323 18.96921,-13.93927 39.39987,-24.03366 21.58722,-10.66584 27.25651,-12.41865 27.25651,-8.42646 0,2.44506 -4.05097,6.18013 -24.23238,22.34167 -12.72876,10.19336 -17.15296,14.43011 -17.15296,16.42335 0,0.56962 0.5021,1.72112 1.11741,2.55856 2.65692,3.61602 11.13366,1.31416 44.91379,-12.19893 38.86669,-15.54787 43.88037,-17.81967 44.20135,-20.02401 0.82068,-5.63559 -2.56887,-8.68245 -10.37538,-9.32474 -5.07902,-0.41788 -5.11815,-0.44204 -6.9988,-4.20949 -1.09877,-2.20112 -1.97449,-5.671279 -2.08858,-8.280773 -0.23493,-5.373145 -1.25918,-6.384276 -10.19729,-10.053095 -7.19629,-2.953855 -11.14067,-4.088485 -16.49113,-3.985381 z m 96.50578,46.427629 c -3.82271,0.16552 -9.5446,3.47306 -19.56026,10.23797 -5.47778,3.6999 -11.2414,8.04974 -12.80895,9.66651 -3.15666,3.25578 -3.16717,3.50917 -0.49308,13.15885 1.43791,5.1888 1.34751,8.21594 -0.32248,10.76278 -0.39804,0.60706 -7.14702,3.4805 -14.99875,6.38706 -7.85171,2.90657 -16.28542,6.30004 -18.74096,7.54123 -5.21445,2.6357 -10.75979,7.39289 -12.48272,10.70861 -1.84727,3.55497 -1.44306,9.98213 0.62807,9.98213 0.44849,0 5.0103,-1.94017 10.13543,-4.31034 8.94569,-4.137 9.54138,-4.29037 14.92938,-3.87147 14.64684,1.13874 52.05811,18.33966 60.72437,27.92008 2.09847,2.31983 7.27846,8.75603 11.51156,14.30367 9.71848,12.73653 20.9586,24.3851 27.08025,28.06387 6.2749,3.77086 12.92016,5.29649 18.4916,4.24497 7.07343,-1.33497 9.155,-4.65967 6.91818,-11.05037 -0.69422,-1.98339 -1.26813,-4.05309 -1.27489,-4.59793 -0.0259,-2.08917 2.68822,-3.63242 6.38759,-3.63242 3.37761,0 4.34343,0.51502 9.86356,5.25346 8.94245,7.67614 19.75364,16.61172 25.54478,21.11281 6.3516,4.93671 9.35496,5.06475 11.60341,0.49117 3.39299,-6.9017 3.05667,-19.74618 -1.04242,-39.88556 -3.37001,-16.5573 -12.28307,-41.27865 -19.23967,-53.36003 -6.49574,-11.28107 -38.26006,-44.74304 -49.90463,-52.57191 -5.7962,-3.8969 -6.57043,-4.1787 -11.41217,-4.16654 -4.62964,0.0117 -6.40727,0.59152 -16.36365,5.34684 -13.69871,6.54269 -14.40048,6.50216 -17.84291,-1.0533 -2.06282,-4.52752 -3.95766,-6.8282 -7.33064,-6.68214 z m -72.12529,97.95184 c -5.09193,0.0397 -10.19569,0.95075 -15.78432,2.71357 -19.79401,6.24356 -42.60007,30.50925 -42.52337,45.24359 0.06,11.51922 11.89541,20.55761 37.14443,28.36642 6.27135,1.93955 14.55232,4.4938 18.4016,5.67553 4.78037,1.46758 7.77224,2.93596 9.43986,4.63342 6.15776,6.26791 11.80131,32.35503 14.40631,66.59358 1.77334,23.30804 4.72595,32.54588 11.29781,35.34178 3.10442,1.32072 5.29089,0.95526 11.38031,-1.90865 9.67893,-4.55209 26.45477,-23.80126 45.81372,-52.56819 5.67277,-8.42961 11.4153,-16.73394 12.76207,-18.45338 1.39278,-1.77823 6.59109,-5.68365 12.05526,-9.05769 12.38023,-7.64461 13.45443,-8.94007 14.75315,-17.77921 1.22658,-8.34814 2.07882,-7.31454 -12.87832,-15.64832 -12.1436,-6.76613 -13.93882,-8.75704 -22.10629,-24.5099 -3.15468,-6.08453 -7.3044,-12.77493 -9.22049,-14.86954 l -3.48346,-3.80983 -12.24649,-2.4185 c -21.14436,-4.17524 -32.83337,-8.22863 -38.21872,-13.25596 -1.2775,-1.19257 -2.32895,-2.94952 -2.33606,-3.9032 -0.0208,-2.78153 -0.87506,-3.4358 -8.05621,-6.17604 -7.5253,-2.87156 -14.05404,-4.26046 -20.60079,-4.20948 z m -192.175388,1.08692 c -2.096726,0 -8.608067,19.77677 -10.930347,33.20154 -4.520776,26.13398 -0.859476,59.3705 9.706074,88.11165 2.874704,7.81997 11.972811,19.10339 19.33528,23.97952 3.075613,2.03697 3.402843,1.78184 3.402843,-2.65568 0,-5.07134 2.075425,-8.42853 12.58021,-20.33777 11.530187,-13.07174 16.470321,-24.55035 14.938759,-34.71427 -0.630987,-4.18738 -2.531143,-6.20082 -17.383557,-18.41978 -6.869379,-5.65138 -10.156715,-10.4204 -18.127877,-26.29716 -7.738805,-15.41393 -11.369719,-26.10196 -12.133999,-35.72276 -0.312165,-3.92957 -0.93603,-7.14529 -1.387386,-7.14529 z M 236.67253,444.52179 c -7.94354,0.12944 -16.65682,1.6131 -26.39408,4.39625 -6.45026,1.84364 -25.34916,8.40639 -34.709,12.05139 l -2.5348,0.98608 3.21724,2.79014 c 8.69719,7.54231 25.77938,13.45441 45.77059,15.84066 5.60859,0.66948 18.69009,0.50393 26.42783,-0.33429 14.33732,-1.55315 33.20223,-5.96719 36.85383,-8.62441 1.48044,-1.07729 1.18462,-1.56505 -4.66837,-7.72238 -12.73671,-13.39898 -26.48748,-19.66819 -43.96324,-19.38344 z"
     id="rect4161"
     inkscape:connector-curvature="0"
     sodipodi:nodetypes="ssscccsssssssssssssssssssssscssssssssssscsssssssssssssssssssssssssscccscssssssssssssssscccsssss" />
  <path
     style="fill:url(#linearGradient4691);fill-opacity:1;stroke:none"
     d="m 258.50868,45.384182 c 115.31977,0 208.80496,93.309718 208.80496,208.413128 0,115.10337 -93.48517,208.41311 -208.80494,208.41311 -115.31979,0 -208.804919,-93.30974 -208.804919,-208.41311 0,-115.10341 93.485129,-208.413128 208.804919,-208.413128 z"
     id="path3792"
     inkscape:connector-curvature="0"
     inkscape:export-filename="/home/davi/Área de Trabalho/asd.png"
     inkscape:export-xdpi="101"
     inkscape:export-ydpi="101" />
  <path
     style="color:#000000;font-style:normal;font-variant:normal;font-weight:normal;font-stretch:normal;font-size:medium;line-height:normal;font-family:Sans;-inkscape-font-specification:Sans;text-indent:0;text-align:start;text-decoration:none;text-decoration-line:none;letter-spacing:normal;word-spacing:normal;text-transform:none;direction:ltr;block-progression:tb;writing-mode:lr-tb;baseline-shift:baseline;text-anchor:start;display:inline;overflow:visible;visibility:visible;fill:none;stroke:none;stroke-width:1px;marker:none;enable-background:accumulate"
     d="m 244.33273,42.25095 -0.56159,0.05616 -26.31018,3.650299 -0.0281,0 -0.0281,0 -27.68607,7.721763 -0.0281,0 -0.0561,0.02789 -35.37978,15.864719 -0.0562,0.02789 -0.0281,0.02789 -36.30638,26.310196 -0.0281,0.02789 -0.0281,0.02789 -25.889011,27.236823 -0.02808,0.0279 0,0.0562 -20.441638,31.75753 -0.505422,0.78621 0.954688,-0.11223 1.572429,-0.16834 1.516284,2.19018 0.365021,-0.25272 -0.365021,0.28079 1.684749,2.16209 0.168474,1.85324 0.421185,-0.0279 -0.308875,0.28082 0.505431,0.56157 -1.600511,2.52713 0.336947,0.22461 -0.393112,-0.0843 -0.421184,2.33056 0.449266,0.0843 -0.336947,0.28077 1.684748,2.16211 0.336948,-0.25269 -0.168474,0.39308 3.257187,1.29164 0.02808,0.0279 3.566054,3.17295 0.308875,-0.36503 0,0.47736 3.818763,0 2.358654,2.134 0.308865,-0.33695 -0.05616,0.44927 8.479911,1.01084 0.05617,0.0279 4.015326,1.7409 0.16848,-0.42119 -0.0281,0.44926 4.35227,0.39312 0.0562,0 2.35865,0.56159 0.0841,-0.39312 0.1123,0.39312 2.49905,-0.64581 -0.11231,-0.42122 0.14041,0.42122 4.43651,-1.40397 4.38035,0.8143 0.0281,0 3.48181,1.62856 5.1385,4.01534 0.28079,-0.33695 -0.16848,0.39311 6.34589,2.63943 0.14041,-0.36503 -0.0281,0.39312 6.73901,0.64581 0.0562,-0.44924 0.22463,0.3931 1.37589,-0.78622 0.92662,-0.19661 -0.44928,0.87042 0.42119,0.19664 -0.30887,0.33698 1.4882,1.34778 0.028,0.0279 4.54883,4.77347 0.6739,2.52712 -0.53351,2.30251 0.4212,0.0844 -0.22464,0.39312 2.24633,1.29163 0.22463,-0.39312 0.39311,0.22466 0.9547,-1.57245 1.7409,1.37588 0.2808,-0.36503 -0.14041,0.44928 2.27442,0.7862 0.0562,1.85323 0.47734,-0.0279 -0.3931,0.25272 1.12315,1.7409 0.36505,-0.22462 0.44925,0.0841 0.16853,-0.84238 1.4882,1.54436 0.30888,-0.30886 0.16853,0.42118 1.9936,-0.78621 2.61138,0.22463 2.35865,2.52713 0.33695,-0.3089 -0.14029,0.44928 2.24634,0.64584 0.14028,-0.44927 0.44928,0.0279 0.16852,-2.72369 2.49906,-1.48824 -0.16854,-0.30883 0.19656,0.28078 1.6005,-1.17933 1.57245,1.82515 0.33693,-0.28078 0,0.44926 2.52714,0.0562 -0.64582,0.92661 0.36503,0.25272 -0.44927,0 0,2.33058 0.44927,0 -0.16853,0.42117 3.31333,1.26356 0.53352,1.79707 -1.60053,3.28525 0.42121,0.19664 -0.44928,0.0841 0.36503,2.47095 -1.68476,2.66757 0.39311,0.25268 -0.22463,0.39312 2.0217,1.15123 -2.16209,2.5552 -3.93109,1.99363 0.19655,0.3931 -0.42117,-0.16834 -1.2074,3.14486 -3.14488,1.76901 0.22463,0.39308 -0.47734,0 0.0842,3.65028 -3.59414,5.33506 0.36503,0.25272 -0.44927,0.0841 0.6739,3.39762 -1.37588,1.03891 0.2808,0.36502 -0.16853,0.42122 2.5552,0.98278 0.47735,1.40393 -4.0434,1.99363 0.19656,0.42119 -0.42119,-0.16834 -0.87045,2.49905 0.42118,0.14028 -0.42118,0.19664 1.82513,3.98724 -0.56158,0.75813 0.33696,0.28082 -0.22463,0.36503 4.12763,2.6956 0.0281,0.0279 8.98534,7.97448 0.0281,0.0279 6.40206,12.86026 0.8143,-0.42119 -6.51438,-12.97256 -0.3931,0.1966 0.30887,-0.33695 -9.06958,-8.03063 -0.36503,0.42119 0.30887,-0.44927 -3.7907,-2.49905 0.44928,-0.56158 -0.36503,-0.25272 0.42118,-0.19663 -1.85321,-4.07146 0.75813,-2.1621 4.23995,-2.07785 -0.19654,-0.4212 0.42117,-0.14029 -0.70198,-1.99363 -0.44925,0.14029 0.16853,-0.42117 -1.96553,-0.75815 0.95467,-0.70196 -0.28077,-0.36502 0.44926,-0.0844 -0.67391,-3.50988 3.59416,-5.30697 -0.36503,-0.25271 0.42117,0 -0.0842,-3.5099 3.06063,-1.71283 -0.22465,-0.39312 0.4212,0.16835 1.23548,-3.14488 3.84685,-1.90937 -0.19655,-0.4212 0.33695,0.30889 2.58328,-3.06064 -0.33695,-0.28079 0.22463,-0.3931 -2.10593,-1.20742 1.51627,-2.41481 -0.36502,-0.22462 0.44925,-0.0844 -0.3931,-2.49903 1.6286,-3.31335 -0.4212,-0.19663 0.44927,-0.14028 -0.64582,-2.16209 -0.42118,0.11241 0.14029,-0.3931 -3.22911,-1.26357 0,-1.8813 1.03893,-1.48818 -0.36502,-0.25273 0,-0.44926 -3.17296,-0.0844 -1.71282,-1.99362 -0.33696,0.28079 -0.2527,-0.36504 -1.8813,1.43205 -0.0561,0.0279 -2.6956,1.57243 0.22465,0.36503 -0.4212,0 -0.14048,2.41482 -1.54434,-0.44927 -2.44288,-2.5833 -0.33695,0.30887 0.0561,-0.44925 -2.89215,-0.22465 -0.0281,0.42121 -0.16853,-0.39311 -1.82515,0.6739 -1.88131,-1.93747 -0.30886,0.30886 -0.44928,-0.0843 -0.11223,0.5616 -0.44928,-0.73005 -0.0561,-2.02173 -0.44925,0.0279 0.14046,-0.42119 -2.52712,-0.87043 -2.07786,-1.62861 -0.2808,0.33694 -0.3931,-0.22461 -0.98277,1.62858 -1.54436,-0.89853 0.47735,-2.07787 -0.42119,-0.11205 0.42119,-0.11223 -0.73006,-2.72369 -0.42119,0.11241 0.30887,-0.30887 -4.66114,-4.8858 -0.30887,0.30889 0.28079,-0.33693 -1.26356,-1.12319 0.73006,-1.3759 0.44926,-0.84235 -0.92661,0.19664 -2.0217,0.39309 0.1123,0.44926 -0.25271,-0.39312 -1.20742,0.7301 -6.48628,-0.5897 -0.0562,-0.0279 -6.28974,-2.63944 -5.02617,-3.93111 -0.25271,0.3089 0.16847,-0.36503 -3.62221,-1.68477 -0.16848,0.36502 0.0841,-0.3931 -4.5769,-0.89853 -0.0842,0.44928 -0.1404,-0.4212 -4.54884,1.43205 -0.0281,0 -2.35865,0.61773 -2.30249,-0.5335 -0.11231,0.44927 0.0562,-0.47735 -4.3242,-0.39312 -4.043401,-1.74091 -0.168483,0.42121 0.05616,-0.44928 -8.451829,-1.01083 -2.386735,-2.1621 -0.280793,0.30886 0,-0.42119 -3.846846,0 -3.481817,-3.0887 -0.336947,0.3931 0.196546,-0.47735 -3.229105,-1.31972 -1.516275,-1.93745 0.336948,-1.99364 1.740912,-2.75176 -0.393112,-0.25269 0.336958,-0.30889 -0.589668,-0.64583 -0.168474,-1.8813 -0.02808,-0.14029 -0.08415,-0.11242 -1.740903,-2.21823 0,-0.0279 -1.684749,-2.38674 -0.365039,0.25272 -0.05617,-0.44928 -0.898533,0.11241 19.880062,-30.91516 0.05616,-0.0561 25.748613,-27.124487 0.0562,-0.05626 36.16598,-26.197857 0.0842,-0.05626 35.23935,-15.808573 0.0841,-0.02789 27.54568,-7.693681 0.0561,0 25.69243,-3.537979 -0.50542,4.633069 -0.0281,0.252692 0.19657,0.168339 5.22271,4.183784 0.14048,0.112424 0.16853,0 4.40842,-0.196613 -0.11241,3.481786 -7.38481,2.049797 -0.19655,0.05607 -0.11224,0.196613 -1.23549,2.723673 -4.26803,0.61775 -2.92023,-1.993623 2.07785,-2.358652 5.41929,-2.105933 2.94832,-0.786224 -0.11242,-0.898524 -4.99809,-0.112415 -0.58966,-2.274407 -0.2808,-1.038925 -0.5335,0.926597 -1.8813,3.172959 -2.86408,1.123153 -2.92026,-0.982761 -0.9266,-0.308876 0.3931,0.926607 0.75815,1.797076 -2.55521,1.881305 -2.89215,0 -0.36503,0 -0.0841,0.336966 -0.25273,0.98277 -3.93107,0.617731 -0.19655,0.02789 -0.11224,0.16835 -3.39758,5.447375 -0.16853,0.252701 0.19656,0.25273 1.26355,1.768976 -2.66753,0.36503 -0.22462,0.02789 -0.11242,0.196623 -0.98277,1.768976 -2.07785,-0.280793 -0.11242,-0.02789 -0.11223,0.02789 -5.67198,2.274425 -0.25272,0.112224 -0.0281,0.280821 -0.42119,4.689224 -2.9483,2.948312 -3.65031,-0.224629 -0.14047,0 -0.14048,0.08434 -4.88576,3.285259 -0.16853,0.112415 -0.0281,0.224648 -0.22465,3.874909 0,0.08434 0.0281,0.08434 1.85323,5.335056 -3.59413,5.924686 -0.0281,0.02789 -8.47992,7.356751 -0.0561,0.0279 -6.06509,3.93108 -0.0561,0.0279 -0.0281,0.0563 -2.836,3.06061 -0.0842,0.0844 -0.0281,0.14028 -1.26357,6.12128 -0.0281,0.11204 0.0561,0.11205 4.23993,12.35483 -1.96553,5.92471 -5.36313,-5.86855 0.33696,-3.76259 0.0281,-0.42121 -0.3931,-0.0844 -2.61135,-0.47735 1.01085,-4.18379 0.11222,-0.42119 -0.42117,-0.11242 -2.21825,-0.61773 -1.48821,-2.27442 -0.22462,-0.33695 -0.36502,0.19662 -3.34144,1.82515 -6.82324,-2.63944 -0.1123,-0.0279 -0.11231,0 -8.56414,0.87046 -0.0281,0 -0.028,0 -5.47545,1.29164 0.11231,0.47737 -0.0562,0.42118 2.75177,0.44923 1.29164,2.24636 -1.79707,0.44926 -2.80792,-1.96552 -0.30887,-0.22463 -0.28079,0.28078 -2.75176,2.83598 -1.57244,-0.58963 -2.19018,-1.88132 -0.22463,-0.16835 -0.25271,0.11241 -1.79706,0.84238 -4.54884,0.22461 0,0.0279 -0.0281,0 -4.32419,0.56158 -0.28079,0.0279 -0.0842,0.25271 -0.61774,1.60048 -1.99362,1.9094 -2.19018,0.36503 -0.0841,0.0279 -0.0842,0.0562 -1.29165,0.87045 -0.22463,0.16835 0.0281,0.28081 0.1123,0.75814 -3.81876,2.16209 -0.1123,0.0563 -0.0562,0.11242 -1.85322,3.53798 -0.0842,0.16835 0.0562,0.19662 1.03893,2.77985 0.50542,1.62858 -1.60051,2.19018 -0.0281,0.0279 -1.96554,2.13401 -0.14038,0.11241 0,0.16834 -0.0841,3.70645 0,0.0563 0.0281,0.0563 1.01084,3.93108 -1.51628,2.63942 -0.1123,0.14029 0.0562,0.19663 0.47735,1.99363 0,0.0561 0.0281,0.0279 1.68475,3.36951 0.0562,0.11242 0.11231,0.0841 2.6956,1.71281 1.46011,3.84684 0.11231,0.25272 0.28078,0.0279 3.34142,0.25274 2.10594,1.65664 0.14041,0.11204 0.19654,-0.0279 2.80792,-0.3931 0.0281,0 2.75176,-0.64582 0.0841,-0.0279 0.0562,-0.0563 2.10594,-1.54438 1.96554,-0.33693 1.99361,0.36502 0.22464,0.0279 0.16847,-0.14029 2.44289,-2.1621 0.39311,-0.0561 0.28079,-0.0562 0.0562,-0.28078 0.53351,-2.02172 0.89853,-0.98275 0.0562,-0.0563 0.028,-0.0842 1.769,-4.15572 3.11678,-1.12317 2.61137,-0.70197 0.0841,-0.0279 0.0842,-0.0841 1.03894,-0.95467 3.20103,-0.58968 1.60051,1.29165 -0.98277,2.47098 -1.60052,2.49903 -0.1123,0.1966 0.0841,0.22465 0.42119,1.03893 -1.57243,4.15571 0.0281,0 -1.99362,3.48184 -0.0281,0.0279 0,0.0561 -1.51628,5.44736 -1.60051,1.68476 -0.75814,0.78623 1.09509,-0.0279 2.24633,-0.0841 0.0281,0 15.35932,-0.8143 1.85323,1.88131 0.0841,0.0841 0.14048,0.0279 2.58328,0.5616 -0.14048,2.44289 -1.79707,3.67836 0,0.0279 -0.0281,0.0561 -1.12315,4.80155 0,0.0561 0,0.0279 -0.25272,3.03255 0,0.1403 0.0561,0.11241 2.07786,3.70644 0.0561,0.0841 0.0841,0.0563 3.73453,2.63945 0.36503,1.20738 0.0561,0.28082 0.30888,0.0561 1.8813,0.22461 0.0281,0 2.07786,0.39311 0.11223,0.0279 0.11223,-0.0279 3.31333,-1.12316 0.0561,0 2.75176,-0.64582 0.19654,-0.0279 0.11242,-0.19661 0.58966,-1.06702 3.903,0.6739 0.78622,2.04977 0.0842,0.19664 0.22462,0.0561 1.71283,0.44928 2.58328,2.41477 0.0281,0.0279 0.0281,0.0279 1.85323,1.20741 0.50543,0.33695 0.16853,-0.58968 0.84237,-3.11676 1.01085,-1.3759 0.73005,-0.67391 2.5833,-2.33056 0.14047,-0.11223 0,-0.19663 0.14048,-2.30248 2.02171,-0.98277 0.53349,0.89852 0.50543,0.89852 0.30888,-0.95468 0.6458,-1.8813 3.2572,-0.0562 0.16853,-0.0279 0.14047,-0.0843 1.96553,-1.7409 0.0281,-0.0279 3.2572,-1.37588 0.0561,-0.0279 0.0561,-0.0279 1.71283,-1.3478 1.51628,0.58965 -1.43205,1.31973 -0.0562,0.0279 -1.71283,1.09508 -0.50543,0.30885 0.44927,0.39311 1.62858,1.40397 0.53351,1.2355 -1.51627,1.23547 -0.42119,0.36503 0.42119,0.33695 1.68474,1.37588 0.30888,0.22464 0.28079,-0.22464 2.07786,-1.76898 0.25272,-0.19662 -0.11223,-0.30886 -0.84238,-2.21827 5.70007,-2.16211 4.26803,0.33696 1.71284,1.37587 0,1.20741 0,0.5616 0.5335,-0.11205 3.0887,-0.702 5.53161,0.3931 5.5316,1.34782 0.16852,0.0279 0.14048,-0.0561 3.9311,-1.71285 4.40843,-0.28078 -0.84238,0.87047 -0.36503,0.3931 0.44926,0.30888 2.19018,1.3478 0.0561,0.0561 0.0841,0 4.15573,0.95471 -0.87047,2.41479 -4.15571,1.03895 -0.11224,0.0279 0.11224,0.87045 0.11241,0 5.16655,0 0.0841,0 0.0561,0 2.47098,-0.75814 6.93555,3.6503 -0.78622,2.21823 -0.0281,0.0842 -0.9266,1.51628 -0.3931,0.64583 0.75812,0.0279 1.51628,0.0841 0.2808,0.0279 0.14047,-0.22466 1.09508,-1.82514 2.77983,0.61773 1.68475,1.3759 0.53352,1.57243 0.33695,1.067 0.47733,-1.01083 0.67393,-1.40397 5.53158,0.61774 0.16853,0 0.11222,-0.0561 1.20741,-0.73006 3.17296,1.06699 6.14934,2.07787 5.30695,5.53159 3.20105,7.63753 -1.3759,5.67201 -4.71731,4.74537 -0.36502,0.33695 0.39311,0.30888 1.60052,1.37588 0.16853,0.14029 0.22463,-0.0563 2.13402,-0.53349 0.36502,1.20738 0.0562,0.14029 0.11223,0.0843 2.24635,1.68473 0.14047,0.0841 0.16853,0 6.00894,-0.47733 0.42119,-0.0279 0,-0.4212 0,-0.14028 3.34141,-3.34143 4.91386,0.30886 6.79515,3.11681 2.66755,4.15572 0.19655,0.30887 0.36503,-0.1403 3.59414,-1.6847 3.67835,1.43202 0.0563,0.0279 0.0563,0 8.11491,0.73009 0.0563,0 6.12126,2.49904 5.05423,3.59413 0.0844,0.0563 0.0563,0.0279 5.70005,1.54436 3.14488,4.38037 0.75813,6.59859 -5.89663,7.1321 -3.62221,1.79708 -0.11223,0.0561 -0.0563,0.11241 -4.68921,7.27249 -2.10595,-1.09508 -0.44925,-0.22465 -0.16854,0.44928 -2.41481,5.61583 -0.0563,0.11241 0.0279,0.11242 0.73005,6.71093 -1.46012,6.03701 -0.0279,0.19662 0.0842,0.14029 0.78622,1.29165 -2.49905,1.90938 -0.19656,0.14029 0,0.25272 0.22463,3.36951 -5.9247,5.55967 -0.0843,0.0561 -0.0279,0.11223 -1.37585,3.20104 -0.0279,0.0842 0,0.0844 -0.0841,3.06061 -2.80792,3.03257 -9.21,1.01085 -0.33694,0.0279 -0.0561,0.33696 -0.28079,1.40393 -6.76707,1.769 -0.11223,0.0279 -0.0562,0.0561 -2.836,2.134 -0.0562,0.0279 -6.20548,3.48183 -0.11224,0.0843 -0.0842,0.11241 -0.70199,1.54436 -0.0562,0.11222 0,0.14029 1.12316,9.09766 0,0.0279 -0.56156,2.16208 -4.46461,3.53798 -0.11222,0.0843 -0.0562,0.11242 -1.74091,5.33504 -0.61775,0.75816 0.81428,-2.66755 0.22465,-0.73005 -0.75813,0.14029 -2.63945,0.56158 -0.22465,0.0562 -0.0843,0.19662 -1.20739,2.47095 -1.46012,0.33697 -0.25272,0.0563 -0.0842,0.25273 -0.61773,2.19017 -1.85322,1.26357 -0.2527,0.16835 0.0842,0.30888 0.56157,1.93745 -3.11679,3.5099 -0.0281,0.0561 -0.0281,0.0562 -1.20741,2.5552 -4.49266,1.65667 -5.70008,-0.30887 -6.14933,-3.06064 -0.22464,-4.12766 -0.84238,-0.16834 -1.62859,3.87493 -0.0562,0.16834 0.0842,0.16834 1.17933,2.72369 0.0561,0.14028 0.11241,0.0561 2.86409,1.93747 0.0281,0.0279 1.37588,1.65668 -0.70198,0.64582 -0.33696,0.30886 0.30886,0.33697 1.90941,2.07785 0.11241,0.11224 0.16853,0.0279 1.15123,0.16834 -0.33695,2.07787 -3.28526,5.05424 -9.46268,2.72367 -5.81238,0.47737 -1.82515,-0.75816 -0.56159,-0.22461 -0.0561,0.58965 -0.16854,1.3478 -0.0281,0.16835 0.11224,0.14029 1.09508,1.54435 -0.67391,5.11041 -4.07147,1.7409 -4.49268,-1.85323 -0.36503,-0.14028 -0.19655,0.33696 -1.51628,2.63944 -0.28079,0.50542 0.56159,0.16835 1.43203,0.3931 0.0841,1.99363 0,0.33694 0.33695,0.0844 3.59412,0.87047 0.30888,0.0841 0.16853,-0.25269 0.16853,-0.25273 0.30888,0.92661 -4.18381,-0.33695 -1.26355,-0.11241 0.92662,0.89854 1.01085,0.92661 -1.79707,1.06702 -0.22463,0.14029 0,0.2527 -0.16853,3.81876 -1.65668,1.90938 -0.19655,0.22467 0.14048,0.28079 0.3931,0.73005 -2.58328,0.0563 -0.14047,0 -0.11242,0.0843 -3.84686,2.80793 -0.16853,0.11242 0,0.22467 -0.25272,3.11675 -0.0281,0.2808 0.25273,0.14029 3.70646,2.10595 0.0281,0 0.0281,0.0279 2.35866,0.78623 0.50543,1.51625 -0.58968,0.3089 -0.6739,0.33692 0.61775,0.44928 0.84237,0.58967 -4.12764,3.00446 -0.0561,0.0279 -0.0281,0.0279 -2.1621,2.58328 -0.16853,0.16835 0.0841,0.25274 0.58965,2.02165 -1.62859,0.7301 -1.46012,-1.96553 -0.47735,-0.61777 -0.30887,0.73005 -0.47733,1.20741 -0.11242,0.25274 0.16854,0.19662 0.81427,1.01084 -2.07785,2.49904 -0.22463,0.28079 0.19655,0.28079 1.34781,1.99363 0.42118,-0.2808 -0.36503,0.33695 2.24633,2.55519 -0.42118,1.68476 -0.0561,0.22461 0.14047,0.16835 1.37588,1.51626 0.19655,2.24633 0.44928,-0.0279 -0.25271,0.36503 5.53159,3.67838 0.28081,-0.39312 -0.14047,0.44927 5.16655,1.4882 -0.2527,0.2808 -5.92471,-0.0843 0,0.44927 -0.25272,-0.36503 -2.2744,1.60051 -3.36952,-0.50542 -0.0281,-0.0279 -4.43651,-1.99363 -7.74986,-7.10401 -0.0281,-0.0279 -7.13211,-7.91833 -0.0281,-0.0561 -0.0281,-0.0279 -3.34142,-5.5597 2.04978,-3.87491 -0.42118,-0.22467 0,-0.42113 -1.3478,0 0.53349,-6.0932 -0.42119,-0.0279 0.39312,-0.16835 -1.29164,-3.14486 -0.42119,0.16835 0,-0.44928 -2.63944,0 0,0.44928 -0.0561,-0.44928 -1.23548,0.16835 0.8143,-2.61133 2.92023,1.37589 0.19655,-0.39312 0.0281,0.44923 2.63945,-0.16834 -0.0281,-0.44924 0.44925,-0.0279 -0.3931,-7.66565 1.68476,-2.21823 -0.36503,-0.28078 0.42117,-0.16835 -1.03892,-2.72367 0.8143,-1.01087 -0.33695,-0.28078 0.42118,0 0,-3.67838 -0.42118,0 0.19655,-0.39312 -1.20741,-0.64581 -0.22462,0.3931 -0.39312,-0.22462 -0.87045,1.6286 0.36502,0.1966 -0.42117,0.0561 0.3931,3.11678 -0.50542,1.43205 -1.99364,-0.0843 0.28081,-2.9764 1.46012,-3.11678 -0.39313,-0.19662 0.44928,-0.0843 -0.61775,-2.75177 0.58968,-4.01533 0.7862,-0.75813 -0.30885,-0.30888 0.42117,-0.0841 -0.73005,-4.01529 -0.4212,0.0844 0.4212,-0.11223 -1.29165,-4.85771 3.70645,-4.97002 0.11242,-0.14029 -0.0281,-0.16835 -0.5335,-3.81877 1.90938,-2.86407 -0.36502,-0.22463 0.44926,0.0279 0.14048,-1.71285 0,-0.0563 1.7409,-4.2961 -0.3931,-0.14029 0.42118,0 0.16853,-4.88576 -0.44927,-0.0279 0.42119,-0.16835 -1.23548,-2.92025 1.40396,-4.15569 -0.4212,-0.14029 0.33697,-0.28078 -1.37589,-1.71281 1.54435,-4.99812 -0.44926,-0.14029 0.47735,0 0,-1.85321 0.36503,-0.42119 -0.33695,-0.30886 0.44926,0.0561 0.70198,-7.46906 -0.39312,-0.0279 0.39312,-0.0842 -0.53351,-3.00448 1.40397,-3.31333 -0.4212,-0.19661 0.39312,-0.16834 -0.84238,-1.90938 0.81429,-1.17933 -0.36503,-0.25273 0.44928,0.0279 0.22463,-4.605 1.0951,-0.75813 -0.25273,-0.36503 0.39312,-0.22464 -0.87047,-1.4601 0.6739,-4.66116 -0.44926,-0.0561 0.44926,-0.16835 -1.76898,-5.13848 -0.44927,0.16834 0.33695,-0.33695 -4.23996,-4.32418 -0.33695,0.33693 0.14047,-0.44928 -6.34588,-2.04975 -0.0561,-0.0279 -9.94003,-5.30696 -4.80154,-10.02428 -0.81429,0.3931 4.88578,10.16466 0.42117,-0.19661 -0.22463,0.42119 10.10852,5.36314 0.0281,0.0279 0.0561,0 6.31781,2.04976 4.12763,4.2119 1.65667,4.97 -0.70197,4.63306 0.47735,0.0843 -0.4212,0.22464 0.73007,1.23549 -0.92661,0.6458 0.25272,0.39312 -0.44928,-0.0279 -0.22463,4.68924 -0.87047,1.23549 0.36505,0.2527 -0.4212,0.19662 0.87046,1.99363 -1.34781,3.2572 0.4212,0.16834 -0.44928,0.0843 0.56158,3.0887 0,0.0561 -0.73005,7.18826 -0.3931,0.44928 0.33694,0.28077 -0.42119,0 0,1.88132 -1.6005,5.2227 0.44927,0.14029 -0.36504,0.2808 1.37587,1.74091 -1.37587,4.07147 0.42119,0.16835 -0.3931,0.16835 1.23548,2.9483 -0.16853,4.68922 -1.71283,4.38036 0.42117,0.16834 -0.47735,-0.0562 -0.14046,1.60053 -1.93746,2.92023 -0.0841,0.14028 0,0.16835 0.5335,3.81876 -3.73454,4.9981 0.39311,0.28078 -0.44925,0.11241 1.34778,5.02618 0,0.0279 0.67391,3.73454 -0.70199,0.73005 0.30887,0.30888 -0.44924,-0.0563 -0.64584,4.23995 0.44926,0.0844 -0.42117,0.0841 0.58964,2.6956 -1.4601,3.03253 0.36502,0.16835 -0.3931,-0.0279 -0.33695,3.53798 0.44926,0.0561 0,0.4212 2.80792,0.0843 0,-0.42118 0.42119,0.14029 0.64582,-1.8532 -0.3931,-0.1403 0.42117,-0.0562 -0.36502,-3.08871 0.58967,-1.09511 0.56158,0.30889 0,3.28524 -0.87046,1.06702 0.36503,0.2808 -0.42119,0.16835 1.03894,2.72367 -1.6286,2.13403 0.36503,0.2808 -0.44928,0.0279 0.36505,7.41291 -2.04977,0.14028 -3.28528,-1.57241 -0.19655,0.39309 -0.4212,-0.11224 -1.2074,3.76261 0.42119,0.14029 0.0561,0.44926 1.8813,-0.25272 0.0561,0 2.27443,0 1.15122,2.77984 -0.56157,6.45821 0.44927,0.0279 0,0.44927 1.067,0 -1.79707,3.42566 0.39313,0.22464 -0.36505,0.22463 3.50989,5.84045 0.39313,-0.22461 -0.33695,0.30886 7.21634,8.03066 0.33695,-0.3089 -0.30888,0.33699 7.77794,7.1321 0.33695,-0.39313 -0.19656,0.47737 4.57691,2.07785 0.19655,-0.42119 -0.0842,0.44927 3.67839,0.56158 0.0561,-0.44928 0.28079,0.39311 2.30249,-1.62857 5.92471,0.0842 0.0281,-0.44926 0.30887,0.30887 0.89855,-0.95469 -0.33695,-0.30888 0.11223,-0.42121 -5.7843,-1.65665 -0.0561,-0.0279 -5.25082,-3.53798 -0.22465,-2.19019 -0.42117,0.0279 0.30887,-0.28078 -1.26357,-1.40396 0.42119,-1.71284 0.0561,-0.22463 -0.16853,-0.16835 -2.35865,-2.69562 -0.0281,-0.0561 -1.15126,-1.65669 2.10594,-2.5552 0.25272,-0.28078 -0.25272,-0.28081 -0.87046,-1.06699 0.0841,-0.22465 1.20741,1.60051 0.22463,0.28081 0.30887,-0.14028 2.33058,-1.06702 0.36503,-0.1403 -0.11224,-0.39312 -0.6739,-2.16208 1.96556,-2.30248 4.63306,-3.3695 0.50542,-0.36503 -0.50542,-0.36502 -0.73005,-0.53352 0.28079,-0.14029 0.33695,-0.1966 -0.11241,-0.36503 -0.73007,-2.07785 -0.0841,-0.22465 -0.19656,-0.0561 -2.5552,-0.89852 0,0.0279 -3.36952,-1.93745 0.19656,-2.63944 3.56606,-2.58329 3.14488,-0.0843 0.73005,-0.0279 -0.33695,-0.61776 -0.58966,-1.09508 1.57243,-1.769 0.11224,-0.14029 0,-0.14028 0.16853,-3.79068 2.10593,-1.23548 0.50542,-0.2808 -0.42117,-0.4212 -0.50544,-0.47733 3.59414,0.28078 0.70198,0.0562 -0.25271,-0.64583 -0.87046,-2.41478 -0.30886,-0.8424 -0.47736,0.75815 -0.47735,0.6739 -2.9483,-0.70199 -0.0841,-1.99364 -0.0281,-0.33692 -0.30888,-0.0844 -1.2074,-0.33694 1.03893,-1.79704 4.29611,1.79704 0.16853,0.0562 0.16853,-0.0841 4.49267,-1.9094 0.25271,-0.11205 0.0281,-0.25272 0.70198,-5.5316 0.0281,-0.16835 -0.0841,-0.14029 -1.09508,-1.54434 0.0561,-0.61775 1.37588,0.58968 0.0842,0.0279 0.11224,0 5.95277,-0.47735 0.0281,0 0.0561,-0.0279 9.7154,-2.80793 0.14048,-0.0279 0.11223,-0.14029 3.42565,-5.30697 0.0561,-0.0843 0.0281,-0.0842 0.39311,-2.58328 0.0841,-0.44925 -0.44928,-0.0562 -1.4601,-0.22463 -1.51628,-1.6286 0.73006,-0.67388 0.30887,-0.28082 -0.2808,-0.33693 -1.68475,-1.99363 -0.0281,-0.0561 -0.0561,-0.0279 -2.83598,-1.9094 -1.09509,-2.47097 0.75814,-1.82515 0.14048,2.4429 0,0.25272 0.2527,0.11223 6.48628,3.20103 0.0842,0.0562 0.0841,0 5.86855,0.30888 0.0841,0.0279 0.0842,-0.0561 4.74539,-1.74092 0.16853,-0.0844 0.0841,-0.16834 1.26356,-2.69561 0.0281,-0.0279 3.20102,-3.56607 0.16853,-0.1966 -0.0562,-0.25268 -0.56158,-1.85325 1.7409,-1.15123 0.14048,-0.11241 0.0281,-0.1403 0.58967,-2.07787 1.40396,-0.33693 0.22463,-0.0562 0.0843,-0.19663 1.17933,-2.4429 1.68474,-0.33693 -1.29164,4.12763 0.78622,0.4212 2.1621,-2.63945 0.0562,-0.0561 0.0281,-0.0842 1.7409,-5.27888 4.43651,-3.50991 0.11222,-0.0842 0.0561,-0.14028 0.64583,-2.49903 0,-0.0843 0,-0.0841 -1.09509,-8.98534 0.58966,-1.29163 6.14934,-3.45377 0,-0.0279 0.0281,-0.0279 2.75174,-2.07787 0.0561,0 6.99173,-1.8532 0.28079,-0.0561 0.0561,-0.28078 0.2527,-1.34782 9.04148,-1.03891 0.16853,0 0.11224,-0.14028 3.06065,-3.28524 0.11224,-0.11224 0,-0.16835 0.0843,-3.11677 1.23547,-2.9764 0.0279,-0.0279 6.06509,-5.67201 0.14029,-0.14029 0,-0.22466 -0.22463,-3.3695 2.61135,-2.02168 0.30888,-0.25273 -0.19656,-0.33696 -0.87045,-1.43202 1.40395,-5.92472 0.0279,-0.0843 -0.0279,-0.0842 -0.70197,-6.73898 2.16208,-5.0262 2.07787,1.06703 0.36503,0.19662 0.19655,-0.33697 4.85771,-7.52521 3.56605,-1.79707 0.0841,-0.0279 0.0563,-0.0841 6.09319,-7.38481 0.14029,-0.14029 -0.0279,-0.19663 -0.81431,-6.90745 0,-0.11242 -0.0843,-0.0842 -3.28526,-4.57694 -0.0844,-0.14029 -0.16853,-0.0279 -5.70007,-1.54436 -0.0279,-0.0279 -5.02618,-3.56605 -0.0563,-0.0561 -0.0279,0 -6.34588,-2.58326 -0.0563,-0.0279 -0.0843,0 -8.1149,-0.70198 -0.0563,0 -3.73451,-1.51629 -0.16853,-0.0563 -0.16853,0.0841 -3.42567,1.60051 -2.52713,-3.93106 -0.0563,-0.11224 -0.11223,-0.0561 -6.99171,-3.20104 -0.0841,-0.0279 -0.0843,-0.0279 -5.19463,-0.30887 -0.22463,-0.0279 -0.14047,0.16835 -3.59414,3.59408 -0.14046,0.1403 0,0.0843 -5.44736,0.4212 -1.96555,-1.4882 -0.44928,-1.46013 -0.11223,-0.3931 -0.42121,0.0843 -2.35866,0.58967 -1.06698,-0.89854 4.49266,-4.46459 0.0844,-0.0843 0.0281,-0.11205 1.43203,-5.9528 0.0562,-0.14028 -0.0562,-0.1403 -3.31336,-7.86217 -0.0281,-0.0841 -0.0561,-0.0563 -5.44737,-5.70008 -0.0843,-0.0563 -0.11224,-0.0561 -6.23358,-2.07787 -3.3695,-1.12315 -0.19656,-0.0561 -0.19655,0.0842 -1.23548,0.73005 -5.70007,-0.61775 -0.30888,-0.0279 -0.14048,0.2808 -0.33694,0.6739 -0.19655,-0.61773 -0.0281,-0.14029 -0.11224,-0.0561 -1.85322,-1.54434 -0.0842,-0.0563 -0.0841,-0.0279 -3.2291,-0.73005 -0.30888,-0.0563 -0.16853,0.25273 -1.12315,1.88131 -0.50542,-0.0563 0.56157,-0.95468 0.0281,-0.0279 0,-0.0279 0.9547,-2.66752 0.14048,-0.36503 -0.33695,-0.16835 -7.46906,-3.9311 -0.16853,-0.0841 -0.16853,0.0562 -2.52713,0.75816 -0.0281,0 -1.54438,0 0.89856,-0.22463 0.22462,-0.0563 0.0841,-0.22465 1.12317,-3.14486 0.16853,-0.47733 -0.50543,-0.11241 -4.54882,-1.01088 -1.65668,-1.0389 1.23547,-1.29166 0.78623,-0.81427 -1.15125,0.0561 -5.5316,0.33695 -0.0841,0 -0.0561,0.0279 -3.95917,1.71285 -5.3912,-1.34782 -0.0281,0 -0.0561,0 -5.61583,-0.39312 -0.0561,0 -0.0561,0 -2.66753,0.58968 0,-0.87045 0,-0.22463 -0.16853,-0.11205 -2.0217,-1.6286 -0.0841,-0.0843 -0.14047,0 -4.49266,-0.33695 -0.11223,0 -0.0841,0.0279 -6.17744,2.33058 -0.42117,0.16834 0.14048,0.4212 0.87045,2.33058 -1.57243,1.34778 -0.9547,-0.78622 1.31972,-1.09508 0.28078,-0.22463 -0.14047,-0.30886 -0.73005,-1.68477 -0.0281,-0.0841 -0.0841,-0.0843 -1.2074,-1.03896 1.23548,-0.78617 0.0281,-0.0279 0.0281,-0.0279 2.02169,-1.85323 0.50544,-0.47733 -0.64584,-0.28081 -2.4148,-0.95469 -0.2527,-0.0842 -0.19657,0.14028 -1.82513,1.48817 -0.0281,0 -3.34144,1.43204 -0.0561,0.0279 -0.0561,0.0561 -1.8813,1.65666 -3.45375,0.0563 -0.30886,0.0279 -0.11223,0.28077 -0.39312,1.20741 -0.22463,-0.3931 -0.19655,-0.36503 -0.39312,0.16835 -2.63943,1.29163 -0.25272,0.11241 0,0.28078 -0.16854,2.35866 -1.65665,1.51629 0,-0.75817 -0.8143,1.12319 -1.85323,2.58326 -0.0561,0.0561 0,0.0843 -0.73006,2.61136 -1.26358,-0.8143 -0.0561,-0.0561 -2.58327,-2.4429 -0.0841,-0.0841 -0.11242,-0.0279 -1.62857,-0.42117 -0.81431,-2.02171 -0.0841,-0.22461 -0.25272,-0.0562 -4.49266,-0.8143 -0.30887,-0.0563 -0.16853,0.30886 -0.61775,1.17932 -2.61136,0.58969 -0.0281,0 -3.28528,1.09508 -1.96553,-0.36502 0,-0.0279 -0.0281,0 -1.62861,-0.19662 -0.30887,-1.06698 -0.0561,-0.16835 -0.11241,-0.0843 -3.79068,-2.69558 -1.96556,-3.45374 0.25272,-2.92027 1.06701,-4.63305 1.85323,-3.79066 0.0281,-0.0842 0,-0.0843 0.16853,-2.89218 0.0281,-0.36503 -0.36504,-0.0841 -2.83598,-0.61777 -1.93747,-1.90937 -0.1404,-0.14029 -0.19656,0 -15.55587,0.8143 -1.15125,0.0563 0.92662,-0.98277 0.0841,-0.0843 0.0281,-0.11205 1.4882,-5.44735 0,-0.0279 0.0281,-0.0563 1.96554,-3.42563 0.028,-0.0279 0,-0.0563 1.6286,-4.32418 0.0562,-0.16835 -0.0842,-0.14029 -0.39311,-0.98278 1.4882,-2.30247 0.028,-0.0562 0,-0.0279 1.12317,-2.89214 0.14039,-0.30886 -0.25271,-0.19662 -2.0217,-1.60052 -0.16847,-0.14028 -0.19656,0.0279 -3.50989,0.64582 -0.14041,0.0279 -0.0841,0.0841 -1.06701,0.98277 -2.52713,0.67389 -0.0281,0.0279 -3.28526,1.2074 -0.19656,0.0562 -0.0841,0.16835 -1.79707,4.26805 -0.92661,0.98275 -0.0562,0.0843 -0.0281,0.11204 -0.47735,1.88133 -0.22463,0.0279 -0.1123,0.0279 -0.1123,0.0841 -2.38674,2.10591 -1.8813,-0.36503 -0.0841,0 -0.0842,0 -2.16209,0.39312 -0.11231,0.0279 -0.0842,0.0562 -2.13402,1.57245 -0.0281,0.0279 -2.52713,0.58966 0,-0.0279 -2.58328,0.3931 -2.10593,-1.65668 -0.11231,-0.0841 -0.1404,0 -3.14487,-0.22463 -1.43204,-3.76259 -0.0562,-0.1403 -0.14038,-0.0563 -2.6956,-1.68475 -1.6286,-3.28528 -0.42119,-1.7409 1.51628,-2.63947 0.1123,-0.16834 -0.0562,-0.16834 -1.03893,-4.09956 0.0841,-3.36952 1.88131,-2.07784 0.028,0 0.0281,-0.0279 1.74091,-2.41479 0.14038,-0.16835 -0.0562,-0.22463 -0.56159,-1.82513 0,-0.0279 -0.98277,-2.61138 1.68475,-3.25717 3.98724,-2.27441 0.25272,-0.1403 -0.0281,-0.30886 -0.1123,-0.75813 0.92662,-0.64582 2.24633,-0.39312 0.1404,-0.0279 0.1123,-0.11205 2.1621,-2.07783 0.0841,-0.0843 0.0281,-0.0844 0.56158,-1.43206 4.01533,-0.53349 0.0281,0 4.63306,-0.22464 0.0841,0 0.0841,-0.0561 1.57244,-0.75815 2.0217,1.74092 0.0562,0.0562 0.0841,0.0279 1.90939,0.73006 0.28079,0.0843 0.19656,-0.1966 2.72367,-2.77983 2.63945,1.88131 0.16847,0.11222 0.19656,-0.0563 2.58329,-0.64582 0.56158,-0.14029 -0.28079,-0.50543 -1.68475,-2.97636 -0.11231,-0.19664 -0.22463,-0.0279 -0.73007,-0.11241 3.20104,-0.75815 0.0562,0 8.39568,-0.87045 6.93555,2.6956 0.19654,0.0844 0.19656,-0.11205 3.14486,-1.7409 1.37587,2.04976 0.0842,0.14029 0.16853,0.0279 1.93746,0.56161 -1.01085,4.23994 -0.11223,0.47735 0.47734,0.0843 2.66753,0.47733 -0.30887,3.56604 -0.0281,0.19663 0.14046,0.14028 6.00896,6.59859 0.50543,0.5616 0.2527,-0.73005 2.27442,-6.79518 0.0281,-0.16835 -0.0281,-0.14028 -4.26805,-12.32677 1.17933,-5.89663 2.75177,-2.97639 6.03701,-3.903 0.0281,-0.0279 0.0281,-0.0279 8.62031,-7.46908 0.0561,-0.0562 0.0281,-0.0563 3.76263,-6.121261 0.11241,-0.196603 -0.0841,-0.196624 -1.90939,-5.475428 0.22464,-3.537985 4.54881,-3.088703 3.73454,0.224609 0.19656,0 0.14047,-0.140296 3.17294,-3.172949 0.11241,-0.112041 0.0281,-0.16835 0.42119,-4.604996 5.30696,-2.105933 2.24635,0.308875 0.30885,0.05616 0.16854,-0.280783 1.01085,-1.82513 3.17295,-0.449277 0.75813,-0.08434 -0.44926,-0.61775 -1.51627,-2.162088 3.14485,-4.970017 3.98725,-0.673905 0.28081,-0.02789 0.0841,-0.280783 0.2527,-0.926626 2.72368,0 0.14047,0 0.11223,-0.08434 2.94832,-2.162087 0.2808,-0.196623 -0.14049,-0.336928 -0.50542,-1.235501 2.10594,0.701978 0.16853,0.05616 0.14029,-0.05616 3.17295,-1.263573 0.16853,-0.05616 0.0561,-0.112042 1.40395,-2.386744 0.3931,1.572448 0.0841,0.336928 0.33695,0 2.24636,0.05617 -5.55969,2.134005 -0.11223,0.05616 -0.0842,0.08434 -2.47098,2.83602 -0.33695,0.36503 0.4212,0.308856 3.50988,2.358653 0.14048,0.112041 0.16853,-0.02789 4.66115,-0.673914 0.22463,-0.02789 0.11241,-0.224628 1.26358,-2.779827 7.5252,-2.07787 0.30888,-0.112051 0.0281,-0.308856 0.11223,-4.324194 0,-0.477349 -0.47735,0.02789 -4.6892,0.224667 -4.91386,-3.931102 0.5335,-4.998118 0.0561,-0.561586 z"
     id="path3794"
     inkscape:connector-curvature="0"
     inkscape:export-filename="/home/davi/Área de Trabalho/asd.png"
     inkscape:export-xdpi="101"
     inkscape:export-ydpi="101" />
  <path
     style="opacity:0.45723685;fill:#ffcc00;fill-opacity:1;stroke:none"
     d="m 180.50575,203.23918 c -0.61737,-0.69467 -1.07407,-1.08006 -1.21552,-1.02577 -0.1246,0.0478 -0.22661,0.008 -0.22661,-0.0859 0,-0.0949 -0.10835,-0.13106 -0.24068,-0.0805 -0.30066,0.11555 -0.30941,-0.10743 -0.0197,-0.50368 0.20704,-0.28312 0.3054,-0.28958 1.56441,-0.10263 0.73892,0.10983 1.45898,0.23336 1.60018,0.2746 0.14121,0.0411 0.45197,0.57277 0.69064,1.18111 0.39761,1.01345 0.48368,1.11938 1.02695,1.26389 0.52152,0.13881 0.42526,0.15967 -0.79887,0.17444 l -1.3918,0.0166 -0.98895,-1.11275 z"
     id="path3869"
     inkscape:connector-curvature="0"
     inkscape:export-filename="/home/davi/Área de Trabalho/asd.png"
     inkscape:export-xdpi="101"
     inkscape:export-ydpi="101" />
  <path
     id="path3903"
     style="fill:#cef4f6;fill-opacity:1;stroke:none"
     d="m 230.07233,452.35091 c -1.74975,-0.66016 -8.53233,-6.34843 -12.44039,-10.43326 -6.02725,-6.29994 -7.50486,-8.89928 -7.6676,-13.48866 -0.0759,-2.14042 -0.39689,-5.54737 -0.7133,-7.57097 -0.41796,-2.67307 -0.37145,-3.80248 0.17,-4.12984 0.82501,-0.4987 2.23099,-8.29777 2.67399,-14.83263 0.27088,-3.99595 0.18714,-4.31729 -1.60248,-6.14804 -1.76876,-1.80942 -1.85059,-2.10863 -1.2925,-4.72536 0.4207,-1.97253 0.34393,-4.01839 -0.2612,-6.96092 -0.85289,-4.14742 -0.84859,-4.17908 0.89952,-6.62465 1.11886,-1.56531 1.76592,-3.29286 1.7825,-4.75911 0.0148,-1.26599 0.62073,-3.64626 1.34757,-5.28943 0.72685,-1.64316 1.48162,-4.53859 1.67729,-6.43437 l 0.35574,-3.44678 34.18302,0 c 21.84813,0 34.32316,0.22676 34.57134,0.62835 0.62945,1.01846 -1.55321,4.93122 -3.90046,6.99211 -1.6993,1.49201 -2.77539,1.90995 -4.91752,1.90995 -5.20419,0 -9.2854,-2.14652 -9.2854,-4.88363 0,-1.84391 -1.6686,-2.61508 -2.9297,-1.35402 -0.50881,0.5088 -1.09006,1.94166 -1.29167,3.18415 -0.31796,1.95928 -0.0622,2.59593 1.9274,4.79819 1.26168,1.39654 2.29397,2.96584 2.29397,3.4874 0,0.52153 0.74408,1.6923 1.65352,2.60176 l 1.65352,1.6535 -1.39261,2.25333 c -0.76595,1.23929 -1.86743,2.50135 -2.44775,2.80453 -2.19597,1.14731 -10.7123,2.69181 -13.76226,2.49587 l -3.17679,-0.20416 0.17444,3.85848 c 0.14398,3.18555 -0.0465,4.05833 -1.09197,5.00446 -1.11109,1.00555 -1.62324,1.05614 -4.17796,0.41285 -3.35659,-0.84518 -3.76118,-0.68834 -5.14938,1.99608 -0.92821,1.79496 -0.93068,2.0462 -0.0266,2.70729 0.54814,0.4008 0.97015,1.2793 0.93783,1.95212 -0.0323,0.67289 0.0355,1.50934 0.15044,1.8588 0.34182,1.03844 -0.6809,5.63806 -1.49693,6.73244 -0.41596,0.55787 -1.61468,1.45778 -2.66385,1.99988 -2.72866,1.40986 -4.12969,3.17301 -4.54242,5.71633 -0.33935,2.09113 -0.20314,2.30316 2.4027,3.74064 1.51932,0.83813 2.85152,1.98632 2.96035,2.55158 0.26928,1.39822 -4.82087,7.16781 -6.34675,7.19393 -0.91193,0.0148 -1.52954,0.91555 -2.41084,3.51285 -1.15385,3.40067 -1.15403,3.54177 -0.008,5.40057 0.64754,1.04978 1.79179,3.55321 2.54279,5.5632 1.09586,2.93295 1.94365,4.05231 4.29399,5.66938 2.56332,1.7636 2.77549,2.07485 1.70117,2.49559 -1.44411,0.56556 -4.01029,0.61832 -5.35727,0.11001 l 0,0 z m 0.95303,-94.31765 -15.88399,-0.31769 -0.20874,-3.81216 c -0.1955,-3.57004 0.82253,-14.981 2.5791,-28.90882 1.18984,-9.43427 0.97173,-15.69726 -0.65641,-18.84845 -1.68342,-3.25825 -2.85336,-4.07676 -12.83274,-8.97785 l -7.94198,-3.9005 -5.58757,-10.98055 c -3.07315,-6.03928 -6.07928,-11.55235 -6.68031,-12.25124 -0.60102,-0.69888 -3.43014,-3.35823 -6.28691,-5.90966 -3.54012,-3.1617 -5.43411,-5.36602 -5.94768,-6.92214 -0.73342,-2.22232 -0.68964,-2.33687 1.6412,-4.29373 l 2.39474,-2.0105 -1.08334,-3.26157 -1.08332,-3.26159 1.94504,-4.43158 c 1.06977,-2.4374 1.9499,-4.6696 1.9558,-4.96046 0.011,-0.57572 4.17369,-4.98206 7.91669,-8.38158 1.82818,-1.6604 2.25348,-2.43651 1.91488,-3.49448 -0.55178,-1.72413 -0.51911,-2.3158 0.42221,-7.64452 0.77325,-4.37733 0.77301,-4.37878 -0.93337,-5.8466 -0.93877,-0.80747 -1.70685,-1.91481 -1.70685,-2.46068 0,-0.78735 0.51783,-0.64987 2.50476,0.66504 2.42122,1.6023 3.84883,1.63146 3.84883,0.0787 0,-0.41154 1.33165,-2.67961 2.9592,-5.0401 2.36282,-3.42696 3.13417,-4.14666 3.8275,-3.57125 0.4776,0.39636 0.9329,0.60842 1.01181,0.47127 0.0788,-0.13734 0.45332,-0.80973 0.83201,-1.49458 0.37869,-0.68486 2.02921,-1.79541 3.66786,-2.46792 2.86276,-1.17484 3.02842,-1.17829 4.23328,-0.0879 0.9837,0.89024 1.09421,1.32724 0.51281,2.0278 -0.58683,0.70709 -0.38651,1.24759 0.96214,2.59625 2.02024,2.02025 3.29177,1.57027 4.99548,-1.76782 1.37962,-2.70305 2.14633,-3.16336 5.28905,-3.17529 1.78139,-0.008 2.88972,0.37641 3.64709,1.26099 0.86471,1.00988 1.90436,1.27847 5.06524,1.30857 2.18747,0.0214 5.40678,0.28023 7.15402,0.57648 1.9254,0.32643 4.39386,0.28471 6.26639,-0.10595 2.79613,-0.58327 3.42532,-0.48012 6.62378,1.08603 l 3.53418,1.73049 -1.94115,0.8162 c -4.19639,1.76448 -2.59167,3.48314 3.25224,3.48314 3.28492,0 8.66034,1.53066 8.60945,2.45157 -0.0129,0.22413 -0.43111,1.12229 -0.93051,1.99593 -1.4414,2.52147 -1.17666,2.74583 2.75489,2.3349 3.58501,-0.37471 3.75533,-0.32344 5.13786,1.54659 1.31857,1.78341 1.51621,1.85608 2.53686,0.9324 2.33907,-2.11682 11.72007,-0.80723 15.89822,2.21943 3.10362,2.24825 6.79436,7.68189 7.36187,10.8384 0.4805,2.67263 -0.40058,4.71126 -3.78927,8.76722 -1.24447,1.48954 -2.12738,2.92723 -1.962,3.19482 0.16539,0.26761 2.23834,1.41295 4.60657,2.54519 5.27023,2.51967 9.01149,2.46054 12.49632,-0.1975 1.21449,-0.92633 3.01349,-1.67795 3.99779,-1.67028 2.63103,0.0214 6.94355,2.17901 9.12446,4.56698 1.838,2.01247 2.10383,2.09498 7.13522,2.21476 6.63372,0.15783 14.39722,2.15804 18.88633,4.86566 1.92195,1.15922 4.49517,2.48768 5.71821,2.95212 1.22309,0.46443 2.76358,1.2977 3.42334,1.85166 1.51438,1.27159 2.93027,4.57168 2.93027,6.82975 0,2.26814 -2.7632,6.19297 -6.21615,8.82952 -1.5169,1.15821 -3.73855,3.39008 -4.93706,4.95968 -1.21864,1.59601 -2.81138,2.94359 -3.61373,3.0575 -2.10377,0.29873 -3.65534,3.88431 -3.66228,8.46341 -0.008,5.11977 -1.11323,11.63758 -2.24873,13.25874 -0.50836,0.72575 -0.92426,2.00211 -0.92426,2.83635 0,0.93343 -1.22376,2.85575 -3.18196,4.99836 -2.10083,2.29863 -3.41839,4.42043 -3.87776,6.24471 -0.93915,3.72973 -2.12651,4.6244 -7.49474,5.64727 -2.51649,0.47949 -5.06018,1.30433 -5.65273,1.83296 -0.59256,0.52864 -2.28398,1.28242 -3.75875,1.67503 -1.47474,0.39263 -4.90569,2.20617 -7.62432,4.0301 l -4.94292,3.31625 0.21564,5.92192 0.21564,5.92192 -4.02779,3.75487 c -2.2153,2.06514 -5.34357,5.00726 -6.95177,6.538 l -2.92393,2.78316 -19.31364,0.24724 c -10.62249,0.13623 -26.4614,0.10411 -35.19761,-0.0704 z m 6.90286,-300.882955 c -0.58005,-0.389557 -1.07681,-0.774186 -1.10392,-0.854801 -0.0271,-0.08089 0.34264,-0.555595 0.82163,-1.055534 0.82906,-0.865343 1.00505,-0.959855 3.66438,-1.967267 1.53639,-0.582048 3.48304,-1.234005 4.32585,-1.44881 l 1.53235,-0.390553 -0.0945,-0.472662 c -0.052,-0.259976 -0.0945,-0.680087 -0.0945,-0.933545 l 0,-0.460883 -2.53376,-0.05262 c -1.39356,-0.02895 -2.58372,-0.102821 -2.64479,-0.164104 -0.0611,-0.06144 -0.32535,-0.911693 -0.58733,-1.8897 -0.26199,-0.978064 -0.51568,-1.881687 -0.56375,-2.008095 -0.0512,-0.134383 -0.58182,0.615402 -1.2792,1.807552 -0.65548,1.120575 -1.33475,2.277196 -1.50947,2.570305 -0.25061,0.420456 -0.58815,0.636248 -1.59905,1.022277 l -1.28138,0.489329 -2.288,-0.773084 c -1.25838,-0.425143 -2.33468,-0.726341 -2.39177,-0.669227 -0.057,0.05703 0.20232,0.823047 0.57646,1.702124 0.37416,0.879087 0.61927,1.652411 0.54474,1.718495 -0.0746,0.06604 -0.55759,0.426571 -1.0734,0.80106 l -0.93783,0.680921 -1.81458,0 c -1.50342,0 -1.81457,0.04207 -1.81457,0.2465 0,0.217594 -2.02573,0.245024 -17.29499,0.234098 l -17.29501,-0.01294 1.39678,-0.488898 c 4.2664,-1.493444 14.82035,-4.3674 20.70469,-5.638171 8.17603,-1.765602 16.50943,-3.055369 24.89494,-3.852903 l 3.28643,-0.312603 3.05657,2.443158 3.05657,2.443101 2.16066,-0.103367 2.16071,-0.103377 -0.002,0.970263 c -0.004,1.563659 -0.024,1.591569 -1.44501,1.986224 -0.69522,0.193173 -2.39789,0.665442 -3.78366,1.049756 l -2.51959,0.698747 -0.64742,1.40132 c -0.35606,0.770755 -0.68328,1.437232 -0.72712,1.481071 -0.0439,0.0439 -0.91706,0.200063 -1.9405,0.347126 l -1.86076,0.267413 -1.05461,-0.708255 0,0 z M 171.84205,207.75684 c -0.19004,-0.0367 -0.24058,-0.17499 -0.18145,-0.49571 0.0799,-0.43406 0.0742,-0.43765 -0.24844,-0.15173 -0.32292,0.28632 -0.35654,0.26383 -1.49776,-1.00214 l -1.16745,-1.29499 -1.89824,-0.17278 c -1.73818,-0.15819 -1.9527,-0.1462 -2.54411,0.13937 -0.35524,0.17167 -0.73871,0.31207 -0.85216,0.31207 -0.11352,0 -0.62777,-0.46216 -1.14289,-1.02704 -0.87139,-0.95548 -0.96167,-1.01191 -1.29657,-0.81021 -0.46119,0.27776 -0.51566,0.21062 -0.60336,-0.74273 -0.13959,-1.51742 -0.0857,-1.45455 -1.71038,-1.99942 -1.15485,-0.38728 -1.74516,-0.70395 -2.60024,-1.39482 -0.90464,-0.73091 -1.20485,-0.88601 -1.64754,-0.8512 -0.44634,0.0353 -0.6243,0.17591 -1.014,0.80197 -0.44497,0.7149 -0.49721,0.74822 -0.8913,0.56867 -0.23024,-0.10485 -0.38823,-0.27 -0.35108,-0.36688 0.0372,-0.0969 0.15237,-0.58283 0.25599,-1.07992 0.17108,-0.82055 0.14656,-1.05016 -0.26661,-2.49393 l -0.45503,-1.59013 -2.95397,-3.07646 -2.95396,-3.07644 0.70399,-1.30801 c 0.3872,-0.7194 0.67085,-1.34117 0.63032,-1.38169 -0.15422,-0.15432 -4.46582,0.79169 -4.7401,1.0399 -0.15784,0.14288 -0.39585,0.21793 -0.52894,0.16688 -0.13309,-0.051 -0.26876,-0.0129 -0.30149,0.0859 -0.0422,0.12608 -0.94845,0.0975 -3.09169,-0.0987 l -3.03215,-0.27732 -3.20429,-1.33979 -3.20431,-1.33978 -2.5812,-2.02442 c -3.49392,-2.74026 -5.32353,-3.62154 -9.01195,-4.34081 l -2.56584,-0.50036 -2.36907,0.74173 c -4.45965,1.39627 -4.69457,1.44323 -5.81985,1.16336 -0.54227,-0.13494 -2.03741,-0.35078 -3.32254,-0.47976 -2.08611,-0.20932 -2.50888,-0.30721 -3.943765,-0.91264 -0.883917,-0.373 -1.767068,-0.77973 -1.962541,-0.90386 -0.195454,-0.12405 -0.787035,-0.26643 -1.314577,-0.31617 -1.185614,-0.11186 -6.322975,-0.71629 -7.162383,-0.84278 -0.418855,-0.063 -0.616217,-0.17776 -0.616217,-0.35772 0,-0.19855 -0.04706,-0.21789 -0.187595,-0.0773 -0.140583,0.14048 -0.482323,-0.0825 -1.363413,-0.8901 l -1.175819,-1.07766 -2.005221,0.0279 c -1.696834,0.0233 -2.005211,-0.011 -2.005211,-0.22212 0,-0.13751 -0.09565,-0.21319 -0.212619,-0.16815 -0.116968,0.0448 -1.000023,-0.62294 -1.962408,-1.48404 -0.962366,-0.86112 -1.829654,-1.56567 -1.9273,-1.56567 -0.09772,0 -0.729398,-0.23165 -1.403888,-0.51477 -1.13361,-0.47585 -1.218661,-0.54531 -1.124965,-0.9186 0.09508,-0.3791 0.07936,-0.39033 -0.256103,-0.18367 -0.376426,0.23194 -0.494256,0.14306 -1.25767,-0.94737 -0.392096,-0.5601 -0.02904,-1.77995 1.023993,-3.43959 1.012205,-1.59539 1.142562,-2.06936 0.683481,-2.48482 -0.171225,-0.15505 -0.276423,-0.37272 -0.233754,-0.48392 0.04275,-0.11112 -0.02875,-0.24292 -0.158525,-0.29277 -0.160423,-0.0614 -0.236111,-0.34645 -0.236111,-0.88868 0,-0.69519 -0.09536,-0.92074 -0.739452,-1.75032 -0.406703,-0.52372 -0.739453,-0.98622 -0.739453,-1.02776 0,-0.0417 0.638194,-1.23425 1.418246,-2.65049 10.007338,-18.16927 21.576715,-33.57542 36.11859,-48.09658 7.94806,-7.936723 14.5121,-13.619749 23.3136,-20.184403 16.79811,-12.529133 35.81967,-22.655669 55.63327,-29.617698 l 2.52572,-0.887492 17.38423,0 17.38424,0 -0.11999,0.451874 c -0.11666,0.439366 -0.17738,0.460681 -2.18853,0.767764 l -2.06853,0.315853 -2.05356,3.28913 -2.05356,3.289132 0.56486,0.739749 c 0.65151,0.853248 0.60994,0.909383 -0.79892,1.079352 l -0.94128,0.113335 -0.52117,0.977844 c -0.36712,0.688742 -0.59889,0.956644 -0.7841,0.906211 -0.14472,-0.0393 -0.60946,-0.118511 -1.03297,-0.176103 -0.7021,-0.09508 -1.06079,0.01476 -4.06699,1.239027 -2.81953,1.148964 -3.29773,1.394093 -3.30231,1.692819 -0.004,0.19208 -0.10411,1.373016 -0.22465,2.624216 l -0.21935,2.274943 -1.29532,1.315626 -1.29532,1.315626 -1.97199,-0.09894 -1.97198,-0.09894 -2.83446,1.89155 c -1.55896,1.040363 -2.83555,1.909415 -2.83689,1.931219 -9.1e-4,0.02176 -0.0731,1.075749 -0.15967,2.342073 l -0.15727,2.302402 0.95073,2.709451 0.95075,2.709431 -1.74676,2.875672 -1.74677,2.875643 -4.17939,3.652724 c -3.60612,3.1517 -4.63232,3.94709 -7.48179,5.79911 -2.98347,1.93908 -3.4555,2.31097 -4.88718,3.85058 l -1.58476,1.70419 -0.71292,3.43021 -0.71294,3.43019 2.19473,6.38943 2.19472,6.38943 -0.76426,2.31367 c -0.42035,1.2725 -0.81495,2.36984 -0.87689,2.43856 -0.0618,0.0688 -1.15538,-1.01827 -2.42983,-2.4155 -2.24993,-2.46668 -2.31504,-2.55855 -2.24321,-3.16489 0.23655,-1.99685 0.31886,-3.75739 0.17997,-3.84973 -0.0853,-0.0568 -0.70828,-0.1977 -1.38438,-0.31338 -0.6761,-0.11574 -1.26252,-0.29689 -1.30313,-0.40275 -0.0406,-0.10596 0.15856,-1.13679 0.44248,-2.29093 0.284,-1.15419 0.45343,-2.15372 0.3765,-2.22127 -0.077,-0.0678 -0.74675,-0.29143 -1.48849,-0.49756 l -1.34863,-0.37477 -0.86971,-1.31743 c -0.47839,-0.72459 -0.91134,-1.38114 -0.96218,-1.45898 -0.051,-0.0781 -0.99952,0.34759 -2.10822,0.94545 l -2.01581,1.08695 -3.48459,-1.342 -3.4846,-1.342 -4.75952,0.49698 c -3.25441,0.33986 -5.38311,0.6485 -6.73141,0.97605 -1.08454,0.26346 -2.36825,0.57102 -2.85272,0.68344 -0.87479,0.20308 -0.88021,0.20803 -0.79279,0.7469 0.10697,0.65901 -0.0288,1.25721 -0.25366,1.11821 -0.0906,-0.0561 -0.877,0.65352 -1.74779,1.5766 l -1.58326,1.67827 -0.59125,-0.25194 c -0.32518,-0.13863 -1.16115,-0.73626 -1.85774,-1.32826 -0.69658,-0.59198 -1.33797,-1.07632 -1.42531,-1.07632 -0.0873,0 -0.64489,0.2204 -1.23897,0.48977 -0.97385,0.44156 -1.33325,0.50515 -3.65256,0.64627 -1.41485,0.0861 -3.58562,0.28972 -4.82391,0.4525 l -2.25147,0.29603 -0.35348,0.98851 c -0.25531,0.71398 -0.60686,1.24798 -1.2659,1.92284 -0.86623,0.88699 -0.97144,0.94401 -2.07825,1.12611 -0.89788,0.14785 -1.40249,0.34845 -2.19547,0.87324 -0.97007,0.64201 -1.02442,0.7117 -0.9394,1.20492 0.0895,0.51953 0.0755,0.53177 -1.84603,1.61493 l -1.93625,1.09146 -1.11971,2.13107 -1.11971,2.13105 0.83985,2.30908 0.83986,2.30906 -0.88959,1.17516 c -0.48928,0.64632 -1.33912,1.66273 -1.88849,2.25866 l -0.99888,1.08354 -0.0271,2.28507 c -0.0246,2.07175 0.0185,2.45488 0.46442,4.10354 l 0.4916,1.81847 -0.80202,1.35896 c -0.4411,0.74742 -0.79889,1.48197 -0.79509,1.63232 0.0211,0.83488 0.69795,2.80145 1.52376,4.42701 0.93819,1.84672 0.94579,1.85591 2.2113,2.66715 0.69844,0.44772 1.32447,0.8339 1.39119,0.85819 0.0667,0.0242 0.48726,0.99824 0.93453,2.16431 0.44726,1.16607 0.89764,2.1723 1.00085,2.23609 0.10316,0.0638 0.9767,0.16688 1.94112,0.22904 0.96442,0.0624 1.87835,0.20222 2.03093,0.31097 0.1526,0.10872 0.69291,0.5243 1.20068,0.92335 l 0.92322,0.72555 1.59282,-0.20352 c 0.87605,-0.11186 2.29532,-0.35897 3.15389,-0.54889 1.33529,-0.29536 1.72728,-0.46444 2.71017,-1.16903 1.44766,-1.0378 2.45856,-1.28393 4.02707,-0.98061 0.58746,0.11333 1.1484,0.20932 1.24657,0.21255 0.0981,0.006 0.78844,-0.53006 1.53398,-1.18531 0.74554,-0.65525 1.55257,-1.22884 1.79342,-1.27464 0.3908,-0.0744 0.47322,-0.21874 0.76653,-1.34281 0.20573,-0.78839 0.4823,-1.42031 0.73946,-1.68937 0.22595,-0.23643 0.85448,-1.43418 1.39674,-2.66169 l 0.98594,-2.23187 1.31458,-0.47801 c 0.72303,-0.26289 2.01707,-0.66777 2.87566,-0.89971 1.20079,-0.32441 1.69379,-0.54653 2.1362,-0.96259 0.4809,-0.45223 0.80396,-0.58239 1.97188,-0.79448 1.47502,-0.26786 1.45623,-0.27135 2.33991,0.43307 0.2695,0.21471 0.26192,0.28687 -0.13187,1.25594 -0.22977,0.56546 -0.82056,1.66301 -1.31291,2.43901 -0.49233,0.776 -0.89515,1.50976 -0.89515,1.63055 0,0.12072 0.10009,0.45902 0.22226,0.75162 0.20853,0.49905 0.17366,0.66057 -0.56407,2.61336 -0.43249,1.14482 -1.22729,2.84535 -1.7662,3.77898 -0.83356,1.44409 -1.09574,2.11426 -1.75586,4.48831 l -0.77598,2.79075 -1.54168,1.66659 c -0.8479,0.91662 -1.54165,1.70029 -1.54165,1.74148 0,0.10152 1.94937,0.0221 11.72221,-0.47803 l 8.35361,-0.42753 1.0128,0.99222 c 0.69776,0.68359 1.19171,1.02697 1.58795,1.10385 0.31632,0.0612 0.85242,0.18238 1.19133,0.26882 l 0.61621,0.15709 0,0.89992 c 0,0.76864 -0.14047,1.18144 -0.96281,2.82827 -0.80298,1.60819 -1.06322,2.36 -1.56777,4.52911 -0.42562,1.82977 -0.62994,3.14518 -0.68919,4.43673 l -0.0841,1.83586 1.13147,1.97188 1.13148,1.97187 1.95834,1.40618 c 1.89149,1.35816 1.96599,1.43463 2.1824,2.24031 l 0.22406,0.83418 1.00836,0.10854 c 0.55461,0.0596 1.68083,0.22616 2.50272,0.36986 l 1.49438,0.26134 1.7921,-0.59307 c 1.61192,-0.53342 4.40842,-1.25875 4.85317,-1.25875 0.32498,0 -1.4165,1.25462 -3.09516,2.22986 l -1.67731,0.97443 -0.0482,1.15301 c -0.0399,0.95422 -0.0935,1.14418 -0.31145,1.1018 l 0,0 z"
     inkscape:connector-curvature="0"
     inkscape:export-filename="/home/davi/Área de Trabalho/asd.png"
     inkscape:export-xdpi="101"
     inkscape:export-ydpi="101" />
  <path
     style="fill:#cef4f6;fill-opacity:1;stroke:none"
     d="m 180.53983,203.27805 c -0.72992,-0.76949 -1.07153,-1.07516 -1.20142,-1.07516 -0.0999,0 -0.22295,-0.0498 -0.27358,-0.11094 -0.0506,-0.061 -0.16226,-0.0925 -0.24798,-0.0703 -0.23913,0.0626 -0.19571,-0.18841 0.0805,-0.46452 0.22396,-0.22396 0.26029,-0.23357 0.69493,-0.18422 0.25222,0.0286 0.90534,0.12866 1.45135,0.22257 l 0.99275,0.17037 0.52523,1.07215 c 0.48689,0.99391 0.55045,1.08521 0.87059,1.25086 l 0.34538,0.17868 -0.64056,0 c -0.35228,0 -0.85127,0.0194 -1.10884,0.0426 l -0.46833,0.0427 -1.01991,-1.07515 z"
     id="path3911"
     inkscape:connector-curvature="0"
     inkscape:export-filename="/home/davi/Área de Trabalho/asd.png"
     inkscape:export-xdpi="101"
     inkscape:export-ydpi="101" />
  <path
     style="opacity:0.7;fill:#007287;fill-opacity:1;stroke:none;filter:url(#filter4254)"
     d="m 373.21088,381.24972 -8.5,6.96154 -7,12.85207 2,8.56805 1.5,10.17455 -4,9.10355 5.5,12.31657 6.5,5.89053 4.5,10.17456 13,9.10355 8.5,5.35503 6.5,-1.07101 1,-4.81952 -6,-28.91716 -7.5,-23.02663 -10,-23.56213 z"
     id="path4234-9"
     inkscape:connector-curvature="0"
     inkscape:export-filename="/home/davi/Área de Trabalho/asd.png"
     inkscape:export-xdpi="101"
     inkscape:export-ydpi="101"
     transform="matrix(0.89853381,0,0,0.89853362,102.51501,-194.30243)" />
  <path
     style="fill:#cef4f6;fill-opacity:1;stroke:none"
     d="m 438.92146,147.64864 -7.63753,6.25517 -6.28975,11.54802 1.79709,7.69869 1.3478,9.14216 -3.59417,8.17986 4.94195,11.06687 5.84048,5.29284 4.04338,9.14219 11.68094,8.17983 7.63753,4.81165 5.84051,-0.96232 0.89851,-4.33051 -5.3912,-25.98303 -6.739,-20.69022 -8.98533,-21.17135 z"
     id="path4234"
     inkscape:connector-curvature="0"
     inkscape:export-filename="/home/davi/Área de Trabalho/asd.png"
     inkscape:export-xdpi="101"
     inkscape:export-ydpi="101" />
  <path
     style="opacity:0.45723685;fill:none;stroke:none"
     d="M 265.35186,31.72348 C 384.45104,31.72348 481,128.09128 481,246.96693 c 0,118.87573 -96.54896,215.24349 -215.64812,215.24349 -119.09916,0 -215.648099,-96.36776 -215.648099,-215.24349 0,-118.87565 96.548939,-215.24345 215.648099,-215.24345 z"
     id="path3792-4"
     inkscape:connector-curvature="0"
     inkscape:export-filename="/home/davi/Área de Trabalho/asd.png"
     inkscape:export-xdpi="101"
     inkscape:export-ydpi="101" />
</svg>
