<?xml version="1.0" encoding="UTF-8" standalone="no"?>
<!-- Created with Inkscape (http://www.inkscape.org/) -->

<svg
   xmlns:dc="http://purl.org/dc/elements/1.1/"
   xmlns:cc="http://creativecommons.org/ns#"
   xmlns:rdf="http://www.w3.org/1999/02/22-rdf-syntax-ns#"
   xmlns:svg="http://www.w3.org/2000/svg"
   xmlns="http://www.w3.org/2000/svg"
   xmlns:sodipodi="http://sodipodi.sourceforge.net/DTD/sodipodi-0.dtd"
   xmlns:inkscape="http://www.inkscape.org/namespaces/inkscape"
   width="64"
   height="64"
   id="svg4152"
   version="1.1"
   inkscape:version="0.91 r13725"
   viewBox="0 0 64 64"
   sodipodi:docname="system-help.svg">
  <defs
     id="defs4154" />
  <sodipodi:namedview
     id="base"
     pagecolor="#ffffff"
     bordercolor="#666666"
     borderopacity="1.0"
     inkscape:pageopacity="0.0"
     inkscape:pageshadow="2"
     inkscape:zoom="5.5"
     inkscape:cx="-6.3824181"
     inkscape:cy="39.253806"
     inkscape:current-layer="layer1"
     showgrid="false"
     inkscape:document-units="px"
     inkscape:grid-bbox="true"
     inkscape:window-width="1366"
     inkscape:window-height="704"
     inkscape:window-x="0"
     inkscape:window-y="30"
     inkscape:window-maximized="1">
    <inkscape:grid
       type="xygrid"
       id="grid4733" />
  </sodipodi:namedview>
  <metadata
     id="metadata4157">
    <rdf:RDF>
      <cc:Work
         rdf:about="">
        <dc:format>image/svg+xml</dc:format>
        <dc:type
           rdf:resource="http://purl.org/dc/dcmitype/StillImage" />
        <dc:title />
      </cc:Work>
    </rdf:RDF>
  </metadata>
  <g
     id="layer1"
     inkscape:label="Layer 1"
     inkscape:groupmode="layer">
    <path
       style="opacity:1;fill:#bd2812;fill-opacity:1;stroke:none;stroke-width:0.01;stroke-linecap:round;stroke-linejoin:round;stroke-miterlimit:4;stroke-dasharray:none;stroke-opacity:1"
       d="M 31.998169,7 A 24.998169,25 0 0 0 7,32 24.998169,25 0 0 0 31.998169,57 24.998169,25 0 0 0 56.996338,32 24.998169,25 0 0 0 31.998169,7 Z m 0,9.375 A 15.623855,15.625 0 0 1 47.622024,32 15.623855,15.625 0 0 1 31.998169,47.625 15.623855,15.625 0 0 1 16.374314,32 15.623855,15.625 0 0 1 31.998169,16.375 Z"
       id="path4700"
       inkscape:connector-curvature="0" />
    <path
       style="opacity:1;fill:#ffffff;fill-opacity:1;stroke:none;stroke-width:0.01;stroke-linecap:round;stroke-linejoin:round;stroke-miterlimit:4;stroke-dasharray:none;stroke-opacity:1"
       d="m 32.001221,7.0009094 a 24.998169,25 0 0 0 -7.647145,1.2105312 l 3.297692,8.7890624 a 15.623855,15.625 0 0 1 4.349453,-0.624593 15.623855,15.625 0 0 1 4.347419,0.628662 L 39.642262,8.2277167 A 24.998169,25 0 0 0 32.001221,7.0009094 Z"
       id="path4700-6"
       inkscape:connector-curvature="0" />
    <path
       style="opacity:1;fill:#ffffff;fill-opacity:1;stroke:none;stroke-width:0.01;stroke-linecap:round;stroke-linejoin:round;stroke-miterlimit:4;stroke-dasharray:none;stroke-opacity:1"
       d="m 32.001221,57 a 24.998169,25 0 0 1 -7.647145,-1.210531 l 3.297692,-8.789063 a 15.623855,15.625 0 0 0 4.349453,0.624593 15.623855,15.625 0 0 0 4.347419,-0.628662 l 3.293622,8.776856 A 24.998169,25 0 0 1 32.001221,57 Z"
       id="path4700-6-6"
       inkscape:connector-curvature="0" />
    <path
       style="opacity:1;fill:#ffffff;fill-opacity:1;stroke:none;stroke-width:0.01;stroke-linecap:round;stroke-linejoin:round;stroke-miterlimit:4;stroke-dasharray:none;stroke-opacity:1"
       d="m 7,32.003052 a 24.998169,25 0 0 1 1.2104426,-7.647705 l 8.7884184,3.297933 a 15.623855,15.625 0 0 0 -0.624546,4.349772 15.623855,15.625 0 0 0 0.628615,4.347738 L 8.2267174,39.644653 A 24.998169,25 0 0 1 7,32.003052 Z"
       id="path4700-6-2"
       inkscape:connector-curvature="0" />
    <path
       style="opacity:1;fill:#ffffff;fill-opacity:1;stroke:none;stroke-width:0.01;stroke-linecap:round;stroke-linejoin:round;stroke-miterlimit:4;stroke-dasharray:none;stroke-opacity:1"
       d="m 57,32.003052 a 24.998169,25 0 0 0 -1.210443,-7.647705 l -8.788418,3.297933 a 15.623855,15.625 0 0 1 0.624546,4.349772 15.623855,15.625 0 0 1 -0.628615,4.347738 l 8.776212,3.293863 A 24.998169,25 0 0 0 57,32.003052 Z"
       id="path4700-6-2-9"
       inkscape:connector-curvature="0" />
  </g>
</svg>
